<svg width="25" height="25" viewBox="0 0 25 25" fill="none" xmlns="http://www.w3.org/2000/svg">
<path d="M3.17969 4.05688C3.31208 3.81649 3.51872 3.74536 3.78507 3.7547C4.20043 3.77028 4.61164 3.7547 5.02492 3.76041C5.94805 3.77755 6.64326 4.28429 6.94595 5.15862C7.05914 5.48467 7.1635 5.81384 7.26682 6.14509C7.29745 6.24166 7.33639 6.28995 7.45269 6.29151C9.77403 6.32214 12.0948 6.36004 14.4162 6.39223C16.6887 6.4239 18.9612 6.44934 21.2338 6.48517C21.3887 6.49456 21.5402 6.535 21.6793 6.60407C21.835 6.67623 21.8797 6.83303 21.8407 6.99346C21.4716 8.52354 21.1211 10.0567 20.7167 11.5801C20.4752 12.4897 19.6263 13.1185 18.6856 13.2135C17.3393 13.349 15.9945 13.499 14.6488 13.6397C13.5445 13.755 12.4396 13.8645 11.3353 13.9788C10.7981 14.0345 10.2616 14.0939 9.72575 14.1568C9.70079 14.1583 9.67637 14.1647 9.65391 14.1756C9.63145 14.1866 9.61139 14.2019 9.59491 14.2207C9.38411 14.6148 9.27923 15.0218 9.49107 15.4533C9.7029 15.8847 10.0404 16.0914 10.5066 16.0955C11.1748 16.1023 11.8436 16.0955 12.5123 16.0955C14.5846 16.0955 16.6569 16.0967 18.7292 16.0992C18.8667 16.0995 19.0023 16.1311 19.1258 16.1916C19.2915 16.2757 19.3434 16.4574 19.2992 16.6469C19.2794 16.73 19.2344 16.805 19.1704 16.8616C19.1063 16.9181 19.0264 16.9536 18.9415 16.9631C18.8751 16.97 18.8084 16.9728 18.7416 16.9714C16.0245 16.9714 13.3073 16.9714 10.5902 16.9714C9.51495 16.9714 8.72733 16.3245 8.52743 15.2653C8.44331 14.8442 8.5056 14.4069 8.70396 14.026C8.82909 13.7856 8.82078 13.5753 8.73563 13.322C7.86234 10.7149 6.99597 8.10576 6.13652 5.49454C5.94131 4.90577 5.56541 4.63526 4.94237 4.63475C4.55349 4.63475 4.16357 4.628 3.77521 4.63475C3.50938 4.64098 3.30118 4.56258 3.1828 4.30973L3.17969 4.05688ZM20.8672 7.35898L7.60482 7.1648C8.27978 9.20681 8.94435 11.2265 9.61256 13.2534C9.71017 13.2483 9.7948 13.2477 9.87839 13.2389C10.4033 13.1834 10.9277 13.1236 11.4526 13.0696C12.5689 12.9549 13.6852 12.8448 14.8014 12.7301C16.0688 12.5998 17.3351 12.4648 18.6025 12.336C19.2442 12.2706 19.739 11.8687 19.9181 11.2499C19.982 11.0292 20.0324 10.8044 20.0869 10.5811C20.3449 9.51677 20.6024 8.45241 20.8672 7.35898Z" fill="#343A40"/>
<path d="M17.3553 21.9303C16.8395 21.9284 16.3454 21.7229 15.9803 21.3584C15.6153 20.994 15.409 20.5002 15.4063 19.9844C15.4026 18.9184 16.2993 18.0244 17.3688 18.0275C17.6277 18.0243 17.8847 18.0726 18.1247 18.1696C18.3648 18.2667 18.5831 18.4105 18.767 18.5928C18.9509 18.775 19.0967 18.992 19.1959 19.2312C19.2951 19.4703 19.3457 19.7268 19.3448 19.9858C19.344 20.2447 19.2915 20.5008 19.1907 20.7393C19.0898 20.9777 18.9425 21.1938 18.7574 21.3747C18.5722 21.5557 18.3529 21.698 18.1122 21.7934C17.8715 21.8888 17.6142 21.9353 17.3553 21.9303ZM17.3481 21.0549C17.4908 21.0576 17.6327 21.0316 17.7653 20.9786C17.8979 20.9256 18.0185 20.8466 18.1201 20.7463C18.2217 20.6459 18.3022 20.5263 18.3569 20.3944C18.4115 20.2624 18.4392 20.1209 18.4384 19.9781C18.4397 19.6934 18.3278 19.4197 18.1274 19.2175C17.927 19.0152 17.6544 18.9008 17.3696 18.8995C17.0848 18.8982 16.8112 19.01 16.6089 19.2105C16.4067 19.4109 16.2923 19.6835 16.291 19.9683C16.2885 20.1093 16.314 20.2495 16.366 20.3807C16.418 20.5118 16.4955 20.6314 16.594 20.7324C16.6925 20.8335 16.81 20.914 16.9398 20.9694C17.0696 21.0247 17.209 21.0538 17.3501 21.0549H17.3481Z" fill="#343A40"/>
<path d="M9.14254 21.9307C8.88625 21.9311 8.63237 21.8811 8.39542 21.7834C8.15846 21.6857 7.94306 21.5424 7.76152 21.3614C7.57998 21.1805 7.43585 20.9656 7.33736 20.729C7.23887 20.4924 7.18795 20.2387 7.1875 19.9824C7.18706 19.7261 7.2371 19.4722 7.33477 19.2353C7.43244 18.9983 7.57583 18.7829 7.75675 18.6014C7.93766 18.4198 8.15257 18.2757 8.38918 18.1772C8.6258 18.0787 8.8795 18.0278 9.13579 18.0273C9.65341 18.0265 10.1502 18.2312 10.5168 18.5966C10.8835 18.962 11.0899 19.458 11.0908 19.9756C11.0917 20.4933 10.887 20.99 10.5216 21.3567C10.1562 21.7233 9.66016 21.9298 9.14254 21.9307ZM9.12853 21.0548C9.41346 21.0568 9.68769 20.9464 9.89178 20.7475C10.0959 20.5487 10.2134 20.2774 10.2188 19.9925C10.2308 19.4178 9.73547 18.9131 9.14826 18.9022C8.56104 18.8913 8.06832 19.383 8.06521 19.9733C8.06342 20.1143 8.08958 20.2542 8.14216 20.3851C8.19474 20.5159 8.2727 20.635 8.37156 20.7356C8.47041 20.8361 8.5882 20.9161 8.71812 20.9709C8.84804 21.0257 8.98753 21.0542 9.12853 21.0548Z" fill="#343A40"/>
</svg>
