<svg width="18" height="18" viewBox="0 0 18 18" fill="none" xmlns="http://www.w3.org/2000/svg">
<g clip-path="url(#clip0_2764_17299)">
<path d="M9.20627 0.363281C9.49999 0.478215 9.71283 0.661256 9.72134 1.0018C9.72986 1.34234 9.50425 1.61903 9.16371 1.6616C8.78911 1.70843 8.406 1.69566 8.0314 1.75099C6.65646 1.95106 5.42625 2.49167 4.36205 3.3856C3.14886 4.40297 2.30176 5.67149 1.92717 7.21671C1.31419 9.75375 1.85054 12.0354 3.5788 14.0063C4.72813 15.3174 6.18395 16.1219 7.9037 16.3816C10.1598 16.7221 12.1775 16.1517 13.91 14.6533C15.0594 13.6615 15.8256 12.4228 16.2172 10.9499C16.3577 10.4221 16.4386 9.88571 16.4513 9.34085C16.4556 9.23443 16.4556 9.12375 16.4684 9.01733C16.5109 8.69381 16.7323 8.45969 17.0302 8.42989C17.3623 8.39584 17.6219 8.56185 17.7369 8.88537C17.7454 8.90665 17.7582 8.92368 17.7709 8.94071C17.7709 9.08969 17.7709 9.23443 17.7709 9.38341C17.7369 9.42172 17.7582 9.46855 17.7539 9.51112C17.7539 9.5324 17.7539 9.55368 17.7539 9.57497C17.7539 9.60051 17.7454 9.63456 17.7709 9.65585C17.7709 9.70267 17.7709 9.74524 17.7709 9.79206C17.7326 10.0304 17.7369 10.2731 17.6986 10.5157C17.4219 12.129 16.7578 13.5636 15.6808 14.798C14.2974 16.3901 12.5649 17.3606 10.4918 17.7225C10.2364 17.765 9.97675 17.7565 9.72134 17.7948C9.70006 17.7948 9.67452 17.7948 9.65324 17.7948C9.63195 17.7693 9.60215 17.7778 9.57236 17.7778C9.55107 17.7778 9.52979 17.7778 9.50851 17.7778C9.46594 17.7821 9.41911 17.7608 9.3808 17.7948C9.17648 17.7948 8.97215 17.7948 8.76783 17.7948C8.72951 17.7608 8.68269 17.7821 8.64012 17.7778C8.61884 17.7778 8.59755 17.7778 8.57627 17.7778C8.55073 17.7778 8.51667 17.7693 8.49539 17.7948C8.44857 17.7948 8.406 17.7948 8.35917 17.7948C8.13356 17.7565 7.89944 17.765 7.66957 17.7267C6.05199 17.45 4.6132 16.7902 3.37448 15.709C1.8548 14.3894 0.897024 12.7378 0.49263 10.7626C0.339385 10.0134 0.352156 9.25571 0.369183 8.49374C0.38621 7.73178 0.552225 6.99536 0.790605 6.28022C1.15243 5.19899 1.71007 4.22419 2.45927 3.36006C3.51495 2.14262 4.80901 1.26998 6.33294 0.759162C6.98423 0.542066 7.64829 0.380308 8.34215 0.380308C8.35917 0.380308 8.3762 0.376052 8.38897 0.363281C8.43579 0.363281 8.47836 0.363281 8.52519 0.363281C8.54647 0.388822 8.57627 0.380308 8.60607 0.380308C8.64863 0.376052 8.6912 0.393079 8.72951 0.363281C8.88701 0.363281 9.04877 0.363281 9.20627 0.363281Z" fill="#9F1916"/>
<path d="M8.73234 0.363281C8.69403 0.414363 8.64295 0.393079 8.59612 0.393079C8.58761 0.384565 8.58335 0.380308 8.58761 0.371795C8.59186 0.367538 8.59612 0.363281 8.60038 0.363281C8.64295 0.363281 8.68551 0.363281 8.73234 0.363281Z" fill="#9F1916"/>
<path d="M17.7388 9.52294C17.7388 9.47611 17.7175 9.42077 17.7686 9.38672C17.7686 9.43354 17.7686 9.47611 17.7686 9.52294C17.7601 9.53571 17.7515 9.53571 17.7388 9.52294Z" fill="#9F1916"/>
<path d="M8.59155 0.363281C8.59155 0.371795 8.59155 0.384565 8.58729 0.393079C8.55749 0.397336 8.53195 0.405849 8.52344 0.363281C8.54898 0.363281 8.57026 0.363281 8.59155 0.363281Z" fill="#9F1916"/>
<path d="M17.7344 9.52344C17.7429 9.52344 17.7557 9.52344 17.7642 9.52344C17.7642 9.54472 17.7642 9.57026 17.7642 9.59155C17.7557 9.60432 17.7471 9.60857 17.7344 9.59155C17.7344 9.56601 17.7344 9.54472 17.7344 9.52344Z" fill="#9F1916"/>
<path d="M17.7362 9.59375C17.7447 9.59375 17.7575 9.59375 17.766 9.59375C17.766 9.61503 17.766 9.64057 17.766 9.66186C17.7234 9.64909 17.7362 9.61929 17.7362 9.59375Z" fill="#9F1916"/>
<path d="M4.50829 7.99473C4.50829 7.69676 4.65728 7.46689 4.89991 7.36047C5.15532 7.2498 5.42776 7.29662 5.63208 7.51372C6.00668 7.9096 6.37276 8.30974 6.73885 8.71413C7.28371 9.30582 7.83284 9.89752 8.3692 10.4935C8.4671 10.5999 8.50967 10.5786 8.59481 10.4935C11.1446 7.9394 13.7029 5.38958 16.2528 2.83551C16.4443 2.64395 16.6486 2.51625 16.9296 2.57159C17.4064 2.66524 17.6192 3.21862 17.3255 3.60599C17.2829 3.66558 17.2276 3.71666 17.1765 3.76774C14.4564 6.48783 11.7321 9.20792 9.01197 11.928C8.6246 12.3154 8.26278 12.3069 7.89244 11.9067C6.84101 10.7616 5.78958 9.62083 4.73816 8.47575C4.6062 8.32676 4.49978 8.16926 4.50829 7.99473Z" fill="#9F1916"/>
</g>
<defs>
<clipPath id="clip0_2764_17299">
<rect width="17.4103" height="17.4273" fill="white" transform="translate(0.359375 0.363281)"/>
</clipPath>
</defs>
</svg>
