<svg width="19" height="19" viewBox="0 0 19 19" fill="none" xmlns="http://www.w3.org/2000/svg">
<path d="M13.8014 0.000978393C13.8044 0.0063543 13.8063 0.0146629 13.8107 0.0166178C14.6415 0.333796 14.8991 0.707178 14.8991 1.59567C14.8991 2.6992 14.8991 3.80289 14.8991 4.90674C14.8991 4.97809 14.9069 5.07486 14.8663 5.11591C14.7925 5.19068 14.6889 5.26937 14.5917 5.27866C14.4627 5.29038 14.3664 5.19508 14.3503 5.05287C14.3439 4.98611 14.3415 4.91904 14.3429 4.852C14.3429 3.7361 14.3429 2.62019 14.3429 1.50428C14.3429 0.863079 14.0292 0.549809 13.3894 0.549809H4.35009C4.30757 0.549809 4.26456 0.552741 4.22204 0.549809C4.08178 0.538568 4.03291 0.593795 4.03437 0.740411C4.04121 1.49011 4.0378 2.24029 4.03731 2.98852C4.03731 3.33795 3.93174 3.6522 3.62239 3.83351C3.44029 3.94081 3.23482 4.0022 3.0237 4.01239C2.2789 4.0334 1.53262 4.02069 0.787326 4.02069H0.572777C0.568868 4.11013 0.562999 4.18148 0.562999 4.25235C0.562999 8.60585 0.562999 12.9594 0.562999 17.3129C0.562999 17.8426 0.899727 18.1843 1.43048 18.1843C5.44481 18.1843 9.45915 18.1843 13.4735 18.1843C13.9862 18.1843 14.3214 17.8553 14.3405 17.3446C14.3449 17.2229 14.3405 17.1003 14.3473 16.9791C14.3595 16.8202 14.4632 16.7347 14.6127 16.7293C14.7622 16.724 14.8571 16.8114 14.8908 16.9498C15.0423 17.5362 14.7505 18.2561 14.2154 18.5435C14.0135 18.655 13.7881 18.7173 13.5576 18.7253C9.48815 18.736 5.41875 18.7385 1.34935 18.7326C1.00411 18.7317 0.672474 18.5978 0.423304 18.3589C0.174134 18.1199 0.026566 17.7941 0.0112396 17.4492C0.00684111 17.3637 0.00586439 17.2787 0.00586439 17.1931C0.00586439 12.925 0.00390975 8.65684 0 4.3887C0 3.85795 0.165183 3.44058 0.545895 3.07209C1.34886 2.29503 2.13472 1.50135 2.91961 0.706689C3.21675 0.405638 3.51633 0.120225 3.9381 0L13.8014 0.000978393ZM3.46844 1.03609L1.04048 3.45915H1.19394C1.83416 3.45671 2.47438 3.45915 3.11412 3.4484C3.33599 3.444 3.46355 3.29055 3.46648 3.06232C3.47137 2.62247 3.46648 2.18604 3.46648 1.74815C3.46892 1.50086 3.46844 1.25405 3.46844 1.03609Z" fill="#343A40"/>
<path d="M12.6991 14.9592C12.6991 14.5634 12.6991 14.167 12.6991 13.7707C12.6991 13.6729 12.6762 13.6284 12.5667 13.6001C12.34 13.5436 12.1376 13.4154 11.9897 13.2345C11.8418 13.0536 11.7564 12.8297 11.7461 12.5963C11.731 12.3461 11.6098 12.1774 11.3815 12.0748C10.667 11.7532 10.4559 11.1023 10.8439 10.419C10.9025 10.3261 10.9331 10.2182 10.9321 10.1084C10.9312 9.99854 10.8987 9.89128 10.8386 9.79934C10.452 9.13517 10.667 8.47686 11.3732 8.15626C11.6073 8.05021 11.7295 7.87916 11.7451 7.61867C11.7538 7.45997 11.7972 7.30511 11.8721 7.16496C11.9471 7.02481 12.0518 6.90278 12.179 6.80747C12.3062 6.71215 12.4527 6.64587 12.6082 6.61326C12.7638 6.58066 12.9246 6.58253 13.0793 6.61875C13.376 6.68717 13.593 6.60995 13.7939 6.38514C13.8955 6.26636 14.0218 6.17109 14.164 6.10594C14.3061 6.04079 14.4608 6.00731 14.6171 6.00782C14.7735 6.00833 14.9279 6.04282 15.0696 6.1089C15.2113 6.17498 15.337 6.27107 15.4379 6.39052C15.6334 6.61337 15.8465 6.68375 16.1353 6.62022C16.7887 6.4736 17.3855 6.89048 17.4641 7.55709C17.5008 7.86743 17.6298 8.06438 17.924 8.19243C18.0651 8.2521 18.1917 8.34139 18.2952 8.45425C18.3987 8.56711 18.4768 8.7009 18.5241 8.84656C18.5714 8.99222 18.5869 9.14635 18.5694 9.29851C18.552 9.45066 18.5021 9.59729 18.423 9.72847C18.2661 9.9958 18.2642 10.2279 18.423 10.4953C18.5024 10.6262 18.5527 10.7727 18.5706 10.9247C18.5884 11.0768 18.5734 11.2309 18.5266 11.3767C18.4798 11.5225 18.4021 11.6565 18.299 11.7697C18.1959 11.8829 18.0697 11.9726 17.9289 12.0328C17.6357 12.1613 17.4988 12.3534 17.4666 12.6681C17.4177 13.1475 17.1333 13.4574 16.6783 13.5967C16.5493 13.6358 16.5365 13.6944 16.537 13.799C16.5396 14.5484 16.5396 15.2978 16.537 16.0471C16.537 16.4058 16.3655 16.6517 16.0483 16.6947C15.899 16.7075 15.7492 16.6764 15.6173 16.6052C15.3211 16.4488 15.0391 16.2631 14.7576 16.0828C14.6599 16.0178 14.5841 16.009 14.4795 16.0774C14.2044 16.2573 13.919 16.4225 13.6399 16.5969C13.4263 16.7304 13.2079 16.7636 12.9845 16.6297C12.7705 16.5016 12.6913 16.3052 12.6952 16.0588C12.705 15.6923 12.6991 15.3272 12.6991 14.9592ZM18.0262 9.23047C18.0012 8.93137 17.8766 8.76374 17.6435 8.66893C17.1983 8.4881 16.9671 8.14942 16.9236 7.67683C16.8879 7.29563 16.6143 7.08401 16.2394 7.16856C15.7585 7.27706 15.3651 7.15439 15.0401 6.78101C14.7899 6.49315 14.4292 6.49804 14.1834 6.78492C13.8716 7.14803 13.4884 7.27608 13.0202 7.17198C12.6175 7.08254 12.3311 7.29269 12.2984 7.70126C12.2612 8.16701 12.0218 8.48321 11.5995 8.66599C11.2115 8.83607 11.1108 9.15472 11.3288 9.52859C11.5536 9.91467 11.5554 10.3017 11.3341 10.6898C11.1083 11.0808 11.209 11.3862 11.6225 11.5724C12.0281 11.7552 12.2612 12.0655 12.2969 12.5156C12.3301 12.935 12.6175 13.1476 13.03 13.0562C13.4904 12.9545 13.8696 13.0811 14.1785 13.4369C14.4355 13.7335 14.7899 13.7374 15.0474 13.4408C15.3622 13.0791 15.7448 12.9521 16.2125 13.0581C16.6108 13.1466 16.8816 12.9418 16.9226 12.5391C16.9715 12.0753 17.1983 11.7444 17.6352 11.5617C18.0096 11.4038 18.1239 11.0729 17.9167 10.7308C17.6723 10.3213 17.667 9.91858 17.9123 9.50904C17.9578 9.42028 17.9954 9.32773 18.0247 9.23242L18.0262 9.23047ZM15.9735 13.5801C15.7526 13.5693 15.6148 13.6685 15.4736 13.7985C15.327 13.9359 15.1588 14.083 14.9726 14.1475C14.5167 14.3053 14.1066 14.191 13.7807 13.8264C13.6414 13.671 13.4874 13.5561 13.268 13.582V16.1634C13.3496 16.1146 13.4068 16.0857 13.4635 16.0515C13.7289 15.8893 13.9962 15.7304 14.2572 15.5628C14.5015 15.4069 14.7346 15.4069 14.9766 15.5599C15.2551 15.7353 15.5366 15.9054 15.8176 16.0769C15.8602 16.1023 15.9066 16.1209 15.9745 16.1537V13.5791L15.9735 13.5801Z" fill="#343A40"/>
<path d="M6.25242 2.45779V3.4582C6.40734 3.4582 6.55688 3.45575 6.70594 3.4582C6.93466 3.4626 7.0588 3.56523 7.05538 3.74263C7.05196 3.92004 6.92489 4.01729 6.69715 4.01973C6.58132 4.01973 6.46501 4.01973 6.34918 4.01973C5.95821 4.01436 5.69869 3.77831 5.68159 3.3932C5.66839 3.09997 5.66888 2.80673 5.68159 2.5135C5.69723 2.12937 5.94305 1.8899 6.3267 1.88892C8.18969 1.88599 10.0527 1.88599 11.9157 1.88892C12.3208 1.88892 12.5584 2.13328 12.5642 2.54234C12.5686 2.81651 12.5691 3.09117 12.5642 3.36534C12.5569 3.76218 12.3037 4.01583 11.9074 4.0168C10.6491 4.01974 9.39081 4.01974 8.13252 4.0168C7.91699 4.0168 7.79628 3.91662 7.79041 3.74459C7.78504 3.56083 7.90086 3.45673 8.13252 3.45624C9.3421 3.4538 10.5512 3.45624 11.7608 3.45624C11.8385 3.45624 11.9157 3.44793 12.0081 3.44256C12.0081 3.13564 12.012 2.84339 12.0032 2.55211C12.0032 2.51643 11.9357 2.4788 11.8947 2.44948C11.8781 2.43824 11.8458 2.44948 11.8223 2.44948H6.41662C6.36873 2.4485 6.32133 2.45388 6.25242 2.45779Z" fill="#343A40"/>
<path d="M5.86286 6.63533C6.99181 6.63533 8.12108 6.63533 9.25067 6.63533C9.32886 6.63533 9.42709 6.62409 9.48134 6.66417C9.56003 6.72281 9.65631 6.82447 9.65435 6.90559C9.65435 6.99649 9.56198 7.10108 9.48476 7.16901C9.44029 7.2086 9.34548 7.20078 9.27315 7.20078C7.00842 7.20078 4.74403 7.20078 2.47995 7.20078C2.41909 7.20256 2.35823 7.19715 2.29864 7.18465C2.1574 7.14995 2.07481 7.05368 2.07823 6.9095C2.08165 6.76533 2.1701 6.67345 2.31183 6.64462C2.3781 6.63441 2.44523 6.63081 2.51221 6.63387L5.86286 6.63533Z" fill="#343A40"/>
<path d="M5.87646 12.9843H2.50674C2.45183 12.9873 2.39678 12.9862 2.34204 12.9809C2.18516 12.955 2.07911 12.865 2.07813 12.7028C2.07715 12.5405 2.17881 12.4477 2.33862 12.4242C2.39315 12.4185 2.44803 12.4167 2.50283 12.4188H9.27892C9.54185 12.4188 9.66989 12.5117 9.66989 12.6999C9.66989 12.888 9.54087 12.9848 9.28429 12.9848L5.87646 12.9843Z" fill="#343A40"/>
<path d="M5.86915 9.11885H2.5141C2.45301 9.11885 2.39192 9.11885 2.33083 9.11445C2.1715 9.10272 2.0894 9.00449 2.0718 8.85592C2.05568 8.71712 2.17248 8.58712 2.32203 8.56659C2.37078 8.56243 2.41976 8.56145 2.46864 8.56366H9.27015C9.31903 8.56143 9.36801 8.56241 9.41676 8.56659C9.48732 8.5733 9.55244 8.60741 9.59812 8.6616C9.64381 8.71579 9.66643 8.78573 9.66112 8.8564C9.65037 9.01231 9.56338 9.10077 9.4065 9.11445C9.34541 9.11983 9.28432 9.11885 9.22323 9.11885H5.86915Z" fill="#343A40"/>
<path d="M5.87379 11.0491H2.48208C2.42719 11.0528 2.37207 11.0517 2.31738 11.0456C2.16539 11.0178 2.07302 10.9195 2.0784 10.768C2.07683 10.7342 2.08204 10.7003 2.09373 10.6685C2.10542 10.6366 2.12336 10.6074 2.14649 10.5826C2.16961 10.5578 2.19747 10.5379 2.22841 10.524C2.25935 10.5101 2.29276 10.5025 2.32667 10.5017C2.39366 10.4966 2.46086 10.495 2.52802 10.4968H9.21809C9.27918 10.4968 9.34076 10.4968 9.40136 10.5002C9.56411 10.5129 9.66479 10.616 9.66674 10.768C9.66869 10.92 9.55873 11.0378 9.39208 11.0486C9.34321 11.0515 9.29434 11.0486 9.24546 11.0486L5.87379 11.0491Z" fill="#343A40"/>
<path d="M4.12225 15.2507H5.73502C5.79601 15.2495 5.85702 15.2514 5.9178 15.2566C5.95161 15.2579 5.98482 15.266 6.01548 15.2803C6.04614 15.2947 6.07363 15.315 6.09637 15.34C6.11912 15.3651 6.13665 15.3944 6.14794 15.4263C6.15924 15.4582 6.16407 15.492 6.16216 15.5258C6.16509 15.6671 6.0781 15.7643 5.93735 15.799C5.88892 15.8071 5.83968 15.8093 5.79073 15.8054H2.44105C2.39848 15.8082 2.35573 15.8065 2.3135 15.8005C2.16688 15.7673 2.07207 15.671 2.07843 15.519C2.08478 15.367 2.17031 15.2634 2.32914 15.257C2.56715 15.2473 2.80515 15.2507 3.04316 15.2502L4.12225 15.2507Z" fill="#343A40"/>
<path d="M14.6139 12.417C13.3466 12.417 12.3052 11.377 12.3047 10.1161C12.3042 8.85519 13.3476 7.8147 14.6124 7.80884C14.9178 7.80439 15.2211 7.8607 15.5045 7.97449C15.7879 8.08829 16.0459 8.25729 16.2635 8.47169C16.481 8.68608 16.6537 8.94158 16.7717 9.22334C16.8896 9.50509 16.9503 9.80747 16.9503 10.1129C16.9503 10.4183 16.8896 10.7207 16.7717 11.0025C16.6537 11.2842 16.481 11.5397 16.2635 11.7541C16.0459 11.9685 15.7879 12.1375 15.5045 12.2513C15.2211 12.3651 14.9178 12.4214 14.6124 12.417H14.6139ZM14.6232 8.37477C14.1612 8.37231 13.7172 8.55346 13.3888 8.87837C13.0604 9.20328 12.8746 9.64533 12.8721 10.1073C12.8696 10.5692 13.0508 11.0132 13.3757 11.3416C13.7006 11.67 14.1426 11.8559 14.6046 11.8584C14.8333 11.8596 15.0601 11.8157 15.2719 11.7293C15.4837 11.6429 15.6764 11.5156 15.839 11.3548C16.0016 11.1939 16.1309 11.0026 16.2195 10.7917C16.3082 10.5808 16.3545 10.3546 16.3557 10.1259C16.3569 9.89712 16.3131 9.67038 16.2267 9.45859C16.1402 9.2468 16.013 9.0541 15.8521 8.8915C15.6912 8.7289 15.4999 8.59957 15.289 8.51091C15.0782 8.42225 14.8519 8.37599 14.6232 8.37477Z" fill="#343A40"/>
</svg>
