<svg width="20" height="20" viewBox="0 0 20 20" fill="none" xmlns="http://www.w3.org/2000/svg">
<path d="M9.51153 18.5907C4.52321 18.5907 0.474019 14.5338 0.476564 9.54551C0.481654 4.55719 4.53848 0.508001 9.5268 0.515636C14.5177 0.523271 18.5618 4.5801 18.5516 9.56841C18.5439 14.5491 14.4922 18.5932 9.51153 18.5907ZM9.51153 1.37587C5.00423 1.37587 1.33425 5.04584 1.33425 9.55569C1.33425 14.063 5.00677 17.733 9.51407 17.733C14.0214 17.733 17.6913 14.0604 17.6913 9.55315C17.6913 5.0433 14.0214 1.37587 9.51153 1.37587Z" fill="#343A40"/>
<path d="M9.95126 9.11981C10.3381 9.11981 10.6893 9.11981 11.0431 9.11981C11.8855 9.11981 12.7279 9.11981 13.5703 9.11981C13.6492 9.11981 13.7332 9.11981 13.8096 9.13508C14.0183 9.17325 14.1608 9.35141 14.1582 9.55756C14.1557 9.75607 14.0183 9.92659 13.8198 9.96731C13.7485 9.98258 13.6721 9.98513 13.5983 9.98513C12.2851 9.98513 10.9718 9.98513 9.65858 9.98513C9.2361 9.98513 9.08594 9.83751 9.08594 9.41758C9.08594 7.4477 9.08594 5.47782 9.08594 3.50795C9.08594 3.43414 9.08848 3.35779 9.10375 3.28653C9.14447 3.08547 9.31499 2.95312 9.51605 2.95312C9.71966 2.95312 9.89018 3.08547 9.92835 3.28398C9.94617 3.37306 9.94617 3.46977 9.94617 3.56139C9.94617 5.32767 9.94617 7.09139 9.94617 8.85766C9.94617 8.93656 9.94617 9.01546 9.94617 9.11726L9.95126 9.11981Z" fill="#343A40"/>
</svg>
