<svg width="19" height="19" viewBox="0 0 19 19" fill="none" xmlns="http://www.w3.org/2000/svg">
<path d="M18.9941 5.76034C18.9941 6.98045 18.9972 8.20055 18.9941 9.42117C18.9905 10.4136 18.3774 11.22 17.4389 11.4584C17.2716 11.4998 17.0999 11.5205 16.9276 11.5201C15.5687 11.5253 14.2098 11.5253 12.8509 11.5201C11.6776 11.5201 10.7767 10.6176 10.772 9.43093C10.7664 7.90914 10.772 6.38684 10.772 4.86505C10.772 3.93378 10.7664 3.00252 10.772 2.07125C10.7707 1.60269 10.9298 1.1478 11.2229 0.782276C11.5161 0.416751 11.9256 0.162642 12.3833 0.0622393C12.5583 0.0238724 12.7371 0.00542407 12.9162 0.00724689C14.2237 0.0027927 15.5312 0.0027927 16.8386 0.00724689C18.1014 0.00724689 18.9936 0.899454 18.9972 2.16222C18.9965 3.35971 18.9955 4.55908 18.9941 5.76034ZM18.1559 5.766C18.1559 4.55857 18.1559 3.35114 18.1559 2.14371C18.1559 1.35018 17.6512 0.842921 16.8623 0.842407C15.5415 0.842407 14.221 0.842407 12.9008 0.842407C12.1129 0.842407 11.6082 1.35121 11.6077 2.14423C11.6077 4.55943 11.6077 6.97497 11.6077 9.39085C11.6077 10.1839 12.1057 10.6911 12.9013 10.6947C14.2218 10.7009 15.5423 10.7009 16.8628 10.6947C17.6579 10.6911 18.1549 10.1808 18.1559 9.38982C18.1569 8.18171 18.1569 6.97411 18.1559 5.76702V5.766Z" fill="#343A40"/>
<path d="M0.923932 12.3483C0.923932 11.1215 0.919306 9.89471 0.923932 8.66844C0.928557 7.69195 1.54992 6.88711 2.47964 6.65121C2.65348 6.60941 2.83177 6.58905 3.01055 6.59056C4.35674 6.58542 5.70276 6.58457 7.04861 6.58799C8.23942 6.58799 9.13933 7.48174 9.14499 8.67821C9.15167 10.0268 9.14499 11.3754 9.14499 12.724C9.14499 13.8223 9.14961 14.9206 9.14499 16.0184C9.13933 17.0175 8.49793 17.8249 7.53326 18.051C7.35825 18.0894 7.17946 18.1078 7.0003 18.106C5.69282 18.1108 4.38535 18.1108 3.07788 18.106C1.81717 18.106 0.924444 17.2107 0.922389 15.9474C0.921361 14.7489 0.921876 13.5492 0.923932 12.3483ZM8.31034 12.3483C8.31034 11.1409 8.31034 9.93343 8.31034 8.726C8.31034 7.9299 7.81541 7.41955 7.02548 7.41544C5.69882 7.40859 4.37199 7.40859 3.04498 7.41544C2.26173 7.41955 1.76526 7.92939 1.76474 8.71264C1.76474 11.134 1.76474 13.5554 1.76474 15.9767C1.76474 16.7554 2.27406 17.2652 3.04961 17.2657C4.3701 17.2657 5.69059 17.2657 7.01109 17.2657C7.80205 17.2657 8.30983 16.7584 8.31086 15.9695C8.3112 14.7645 8.31068 13.5581 8.30931 12.3503L8.31034 12.3483Z" fill="#343A40"/>
<path d="M5.0432 0.00176199C5.69694 0.00176199 6.35068 0.00176199 7.0039 0.00176199C8.25124 0.00484566 9.14345 0.89911 9.14705 2.15005C9.14705 2.65063 9.14705 3.15173 9.14705 3.65231C9.14088 4.86676 8.24559 5.76976 7.03525 5.77388C5.70276 5.77867 4.3701 5.77867 3.03727 5.77388C1.82642 5.76976 0.930098 4.86779 0.923931 3.65437C0.92119 3.14042 0.92119 2.62648 0.923931 2.11253C0.931126 0.909389 1.82693 0.00895829 3.02597 0.00124912C3.69923 -0.00183455 4.37045 0.00176199 5.0432 0.00176199ZM5.02932 4.93563C5.71544 4.93563 6.40104 4.93871 7.0851 4.93563C7.24565 4.93741 7.40495 4.90716 7.55367 4.84665C7.7024 4.78614 7.83756 4.69658 7.95126 4.58322C8.06497 4.46985 8.15492 4.33495 8.21587 4.18641C8.27682 4.03786 8.30754 3.87865 8.30623 3.7181C8.31069 3.16612 8.31069 2.61397 8.30623 2.06165C8.30803 1.901 8.27766 1.74162 8.21692 1.59289C8.15618 1.44415 8.06628 1.30908 7.95254 1.19562C7.83879 1.08216 7.70349 0.992613 7.5546 0.932245C7.40571 0.871878 7.24626 0.841914 7.08561 0.844118C5.72092 0.840006 4.35622 0.840006 2.99153 0.844118C2.28948 0.844118 1.76526 1.37142 1.75806 2.0709C1.75464 2.6102 1.75464 3.1495 1.75806 3.6888C1.76166 4.41346 2.28177 4.93306 3.00746 4.93666C3.68382 4.9382 4.35657 4.93563 5.02932 4.93563Z" fill="#343A40"/>
<path d="M14.8752 18.1111C14.222 18.1111 13.5683 18.1111 12.915 18.1111C11.6687 18.108 10.7765 17.2112 10.7734 15.9608C10.7734 15.4602 10.7734 14.9596 10.7734 14.459C10.7796 13.2446 11.6754 12.3431 12.8863 12.339C14.2191 12.3349 15.5518 12.3349 16.8842 12.339C18.0956 12.3431 18.9914 13.2441 18.9971 14.459C18.9998 14.973 18.9998 15.4869 18.9971 16.0009C18.9894 17.2035 18.0935 18.1039 16.894 18.1116C16.2207 18.1147 15.548 18.1111 14.8752 18.1111ZM14.8871 13.1773C14.2015 13.1773 13.5158 13.1737 12.8313 13.1773C12.6707 13.1757 12.5114 13.2062 12.3628 13.267C12.2142 13.3277 12.0792 13.4176 11.9657 13.5312C11.8523 13.6449 11.7627 13.78 11.7021 13.9287C11.6416 14.0775 11.6114 14.2368 11.6132 14.3974C11.6091 14.9432 11.6091 15.489 11.6132 16.0348C11.6178 16.7374 12.139 17.2683 12.8374 17.2683C14.2021 17.2724 15.567 17.2724 16.932 17.2683C17.631 17.2683 18.1552 16.7384 18.1598 16.0379C18.164 15.5049 18.1629 14.972 18.1598 14.439C18.1568 13.6979 17.6423 13.1788 16.9069 13.1757C16.2331 13.1752 15.5598 13.1773 14.8871 13.1773Z" fill="#343A40"/>
</svg>
