<svg width="16" height="19" viewBox="0 0 16 19" fill="none" xmlns="http://www.w3.org/2000/svg">
<path d="M1.80124 18.3533C1.49686 18.2241 1.16655 18.1344 0.894342 17.9566C0.339835 17.5952 0.0445757 17.0464 0.0162502 16.3942C-0.0317591 15.2614 0.0109703 14.1343 0.359518 13.0377C0.791601 11.6803 1.51702 10.5107 2.56507 9.53857C3.30441 8.85343 4.28716 8.74664 5.147 9.27634C6.18976 9.91904 7.32374 10.157 8.53358 10.0525C9.32525 9.98388 10.0795 9.7617 10.7463 9.3264C11.6547 8.73424 12.7546 8.85868 13.5453 9.64489C14.8415 10.9355 15.6418 12.4693 15.9025 14.2697C16.014 15.025 16.0301 15.7913 15.9505 16.5506C15.8545 17.4307 15.1622 18.1478 14.2856 18.3147C14.2526 18.3237 14.2204 18.3357 14.1896 18.3504L1.80124 18.3533ZM7.99443 17.6381H9.63203C11.0301 17.6381 12.4281 17.641 13.8261 17.6381C14.5573 17.6381 15.1963 17.1323 15.2184 16.4586C15.2438 15.7172 15.241 14.9648 15.1397 14.232C14.9476 12.8441 14.3432 11.624 13.408 10.5718C13.2374 10.3795 13.0563 10.1968 12.8655 10.0244C12.3902 9.59531 11.7684 9.55526 11.1895 9.90617C9.85912 10.7134 8.42412 10.9632 6.89262 10.7048C6.13572 10.5761 5.41173 10.3007 4.76197 9.89425C4.21659 9.55669 3.5675 9.58768 3.13494 10.0125C2.75086 10.3877 2.37927 10.7825 2.06625 11.2149C1.15407 12.4755 0.733513 13.9006 0.734954 15.4511C0.734954 15.7134 0.729673 15.9756 0.734954 16.2373C0.755117 17.0769 1.33267 17.6391 2.17859 17.64C4.11784 17.6403 6.05646 17.6397 7.99443 17.6381Z" fill="#343A40"/>
<path d="M8.47354 0C8.75636 0.0601688 9.04307 0.106124 9.32102 0.182875C11.1153 0.676069 12.4671 2.2362 12.6744 4.04079C12.949 6.4357 11.3382 8.60177 8.92235 9.08549C6.35946 9.59859 3.79025 7.88733 3.3614 5.38203C2.93644 2.89711 4.52966 0.616376 7.06091 0.0848053C7.21376 0.0530627 7.36806 0.0279524 7.52189 0H8.47354ZM7.99309 8.45727C10.187 8.45727 11.9783 6.71854 11.9779 4.58847C11.9774 2.45839 10.1812 0.712551 7.99504 0.715393C6.94331 0.719495 5.93574 1.12743 5.19132 1.85054C4.44691 2.57364 4.0258 3.55348 4.01952 4.57709C4.01222 6.70527 5.80551 8.4568 7.99309 8.45727Z" fill="#343A40"/>
</svg>
