<svg width="24" height="24" viewBox="0 0 24 24" fill="none" xmlns="http://www.w3.org/2000/svg">
<path d="M15.1938 21.5429H7.15177C7.13367 21.5289 7.11427 21.5168 7.09381 21.5066C6.67799 21.3531 6.46598 21.0546 6.46259 20.6161C6.46259 20.3746 6.46259 20.1331 6.46259 19.8917V19.0846H6.24527C5.80433 19.0846 5.36388 19.088 4.92295 19.0846C4.37722 19.0798 4.00003 18.7012 4.00003 18.1622C4.00003 13.418 4.00003 8.67402 4.00003 3.93016C3.99943 3.85201 4.00687 3.77401 4.02225 3.69738C4.1 3.32937 4.36031 3.13523 4.6863 3H16.4959C16.5141 3.01379 16.5337 3.02576 16.5543 3.03574C16.9687 3.18835 17.1822 3.48826 17.185 3.92678C17.185 4.1557 17.185 4.3851 17.185 4.6145V5.4558C17.6883 5.4558 18.1707 5.47464 18.6508 5.45097C19.2888 5.41958 19.6553 5.93392 19.6534 6.45164C19.6394 9.95786 19.6466 13.4636 19.6457 16.9698C19.6496 17.2843 19.5876 17.5962 19.4636 17.8853C19.3395 18.1743 19.1563 18.4342 18.9256 18.6481C18.3079 19.2416 17.6806 19.8255 17.0547 20.4108C16.817 20.6335 16.5838 20.8629 16.3302 21.0647C15.9999 21.327 15.5971 21.44 15.1938 21.5429ZM15.1668 20.8484V20.6407C15.1668 19.9709 15.176 19.301 15.1668 18.6312C15.1528 17.8222 15.7613 17.2683 16.5017 17.2915C17.242 17.3146 17.9742 17.2968 18.7107 17.2968C18.9652 17.2968 18.9652 17.2968 18.9681 17.0374C18.9681 17.0196 18.9681 17.0012 18.9681 16.9833V6.4642C18.9681 6.17974 18.9198 6.13048 18.6271 6.13048H7.48935C7.18605 6.13048 7.14163 6.1754 7.14163 6.47483C7.14163 11.1582 7.14163 15.8415 7.14163 20.5248C7.14163 20.8209 7.18219 20.8629 7.47341 20.8629C9.93613 20.8629 12.3992 20.8629 14.8625 20.8629C14.9558 20.8614 15.0509 20.8537 15.1668 20.8484ZM16.4959 5.4558C16.5007 5.38529 16.5075 5.33265 16.508 5.28049C16.508 4.84583 16.508 4.41118 16.508 3.97652C16.508 3.73505 16.4505 3.67855 16.2095 3.67855C12.467 3.67855 8.72457 3.67855 4.98235 3.67855C4.74088 3.67855 4.68341 3.73553 4.68341 3.97556C4.68341 8.68947 4.68341 13.4032 4.68341 18.1168C4.68341 18.3443 4.74378 18.4066 4.97318 18.409C5.43198 18.4124 5.89078 18.409 6.34959 18.409C6.3874 18.4054 6.42486 18.3988 6.46163 18.3892V18.1477C6.46163 14.2609 6.46163 10.3742 6.46163 6.48738C6.45606 6.3673 6.46498 6.24698 6.48819 6.12903C6.59782 5.69438 6.93782 5.45532 7.43429 5.45532C10.3738 5.45532 13.3134 5.45532 16.253 5.45532L16.4959 5.4558ZM15.8502 20.5403L15.8985 20.5688L18.645 17.984C17.8288 17.984 17.0764 17.9748 16.3268 17.9888C16.0747 17.9937 15.8647 18.2163 15.8589 18.4834C15.8405 19.1687 15.8502 19.8525 15.8502 20.5403Z" fill="#343A40"/>
<path d="M13.0509 8.57812C14.1066 8.57812 15.1619 8.57812 16.2171 8.57812C16.3881 8.57812 16.5286 8.62062 16.6035 8.78434C16.6251 8.83262 16.6351 8.8853 16.6327 8.93814C16.6302 8.99099 16.6154 9.04253 16.5895 9.08861C16.5635 9.1347 16.5271 9.17404 16.4831 9.20348C16.4391 9.23292 16.3889 9.25163 16.3364 9.25812C16.2824 9.26409 16.2279 9.2657 16.1736 9.26295H9.93296C9.90302 9.26295 9.87308 9.26295 9.84265 9.26295C9.62677 9.25329 9.47512 9.10985 9.47657 8.91812C9.47802 8.72639 9.62919 8.58006 9.84845 8.58006C10.5729 8.57764 11.2973 8.58006 12.0217 8.58006L13.0509 8.57812Z" fill="#343A40"/>
<path d="M13.063 10.8203C14.1313 10.8203 15.1997 10.8203 16.2683 10.8203C16.4229 10.8203 16.5581 10.8686 16.5967 11.0183C16.6233 11.1217 16.6127 11.267 16.5557 11.3501C16.4987 11.4332 16.3693 11.4723 16.2659 11.4916C16.1375 11.5153 16.0013 11.4979 15.8685 11.4979H9.99917C9.92677 11.5003 9.85429 11.4974 9.78232 11.4892C9.69746 11.4804 9.61899 11.4401 9.56239 11.3762C9.5058 11.3124 9.47519 11.2297 9.47661 11.1444C9.47785 11.1005 9.48779 11.0574 9.50586 11.0174C9.52392 10.9775 9.54975 10.9415 9.58183 10.9116C9.61392 10.8818 9.65162 10.8586 9.69275 10.8434C9.73389 10.8282 9.77763 10.8213 9.82144 10.8232C10.3223 10.8198 10.8231 10.8232 11.3244 10.8232L13.063 10.8203Z" fill="#343A40"/>
<path d="M13.0514 13.7219C11.9831 13.7219 10.9147 13.7219 9.84608 13.7219C9.55052 13.7219 9.37087 13.4485 9.52541 13.2235C9.5795 13.1443 9.69299 13.0993 9.78717 13.0564C9.83836 13.0337 9.90597 13.0467 9.96634 13.0467C12.0247 13.0467 14.0832 13.0467 16.1418 13.0467C16.22 13.0446 16.2983 13.0511 16.3751 13.066C16.4519 13.0844 16.5198 13.1291 16.5671 13.1924C16.6144 13.2556 16.638 13.3334 16.6339 13.4123C16.6288 13.4947 16.5927 13.5722 16.5329 13.6292C16.4731 13.6861 16.3939 13.7184 16.3113 13.7194C15.9612 13.7257 15.6111 13.7223 15.2609 13.7223L13.0514 13.7219Z" fill="#343A40"/>
<path d="M11.5915 15.9637C11.025 15.9637 10.4585 15.9637 9.89202 15.9637C9.63413 15.9637 9.47138 15.8251 9.47669 15.6155C9.482 15.4059 9.63896 15.2812 9.88865 15.2812C11.0339 15.2812 12.1791 15.2812 13.3244 15.2812C13.5692 15.2812 13.7305 15.4194 13.732 15.6193C13.7334 15.8193 13.5702 15.9612 13.3277 15.9617C12.7492 15.9646 12.1701 15.9637 11.5915 15.9637Z" fill="#343A40"/>
</svg>
