<svg width="24" height="24" viewBox="0 0 24 24" fill="none" xmlns="http://www.w3.org/2000/svg">
<path d="M21.4156 12.3593C21.4156 13.9772 21.4156 15.597 21.4156 17.2186C21.4156 18.1047 20.8221 18.701 19.9387 18.7003C19.6718 18.7003 19.3965 18.7218 19.1385 18.6698C18.4292 18.5263 18.0007 17.9487 18 17.1756C18 14.9498 18 12.7238 18 10.4976C18 9.51898 18 8.54038 18 7.56179C18 6.59105 18.5769 6.00375 19.5407 6.00167C19.8077 6.00167 20.0829 5.98711 20.3402 6.04397C20.9899 6.18958 21.4142 6.75053 21.4149 7.42241C21.4172 9.06851 21.4175 10.7141 21.4156 12.3593ZM18.753 12.3593C18.753 13.962 18.753 15.5646 18.753 17.1672C18.753 17.7219 19.0089 17.9702 19.565 17.975H19.7986C20.44 17.975 20.6883 17.7247 20.6883 17.0736V7.8225C20.6883 6.89475 20.5295 6.73597 19.6045 6.73666C18.9804 6.73666 18.753 6.96686 18.7523 7.60131C18.7514 9.18731 18.7509 10.7728 18.7509 12.3579L18.753 12.3593Z" fill="#343A40"/>
<path d="M16.0777 13.7302C16.0777 14.8646 16.0513 16.0004 16.086 17.1341C16.1165 18.1395 15.3385 18.7892 14.5037 18.7032C14.2263 18.6748 13.9407 18.7122 13.6827 18.6339C13.1114 18.4675 12.773 18.0639 12.6884 17.4641C12.6748 17.3786 12.6674 17.2921 12.6662 17.2055C12.6662 14.8931 12.6614 12.5799 12.6662 10.2675C12.6662 9.50476 13.076 8.93688 13.7756 8.81138C14.1749 8.73996 14.5836 8.73996 14.9828 8.81138C15.6679 8.93758 16.0721 9.49159 16.077 10.2196C16.0839 11.3915 16.0777 12.5605 16.0777 13.7302ZM13.4116 13.7205C13.4116 14.8903 13.4116 16.06 13.4116 17.2298C13.4116 17.6846 13.6765 17.9523 14.132 17.9724C14.261 17.9786 14.3914 17.9724 14.521 17.9724C15.0799 17.9675 15.3399 17.704 15.3399 17.1403C15.3399 14.9737 15.3399 12.8074 15.3399 10.6412C15.3399 9.63235 15.1832 9.47703 14.1847 9.49506C13.6695 9.50407 13.4109 9.76686 13.4102 10.2883C13.4111 11.4328 13.4116 12.5769 13.4116 13.7205Z" fill="#343A40"/>
<path d="M7.33594 14.9376C7.33594 14.1846 7.33594 13.4309 7.33594 12.6779C7.34079 11.7335 7.9163 11.1559 8.85376 11.1607C9.13111 11.1607 9.40846 11.151 9.67611 11.2107C10.2669 11.3438 10.6586 11.816 10.728 12.4151C10.7396 12.5096 10.7461 12.6048 10.7474 12.7001C10.7474 14.1888 10.7516 15.6816 10.7474 17.1675C10.7474 17.9524 10.3508 18.5252 9.64213 18.6507C9.2176 18.7213 8.78383 18.7152 8.36145 18.6327C7.76167 18.5182 7.35466 17.9691 7.34356 17.3534C7.3297 16.5483 7.34356 15.7433 7.34356 14.9376H7.33594ZM9.99923 14.9279C9.99923 14.1569 10.0027 13.3865 9.99923 12.6155C9.99923 12.1869 9.74059 11.9179 9.31486 11.8923C9.13357 11.8819 8.95184 11.8819 8.77055 11.8923C8.33649 11.9151 8.07231 12.1939 8.07162 12.6314C8.07162 14.1647 8.07162 15.6978 8.07162 17.2306C8.07162 17.6654 8.33857 17.9441 8.77332 17.9691C8.93696 17.9788 9.10199 17.9767 9.26632 17.9691C9.73643 17.9524 9.99784 17.6848 9.99923 17.2133C10.002 16.4527 9.99992 15.6899 9.99923 14.9279Z" fill="#343A40"/>
<path d="M2.00153 16.2289V15.2672C2.00153 14.4629 2.47858 13.8929 3.26973 13.7917C3.56922 13.7545 3.87231 13.7571 4.17113 13.7993C4.9082 13.9026 5.39495 14.456 5.41159 15.2013C5.42685 15.8947 5.42824 16.5881 5.41159 17.2815C5.39079 18.1177 4.77645 18.7029 3.94162 18.6988C3.64138 18.6988 3.33075 18.7113 3.04022 18.644C2.41063 18.4984 2.00014 17.943 2.00014 17.2961C1.99945 16.939 2.00153 16.584 2.00153 16.2289ZM4.66205 16.2414C4.66205 15.9128 4.6669 15.5834 4.66205 15.2547C4.65373 14.7832 4.4048 14.5357 3.94023 14.5288C3.77659 14.526 3.61249 14.526 3.44793 14.5288C3.0208 14.5371 2.74068 14.7902 2.73236 15.2159C2.71918 15.9003 2.72057 16.5847 2.73236 17.2683C2.7386 17.6455 2.9792 17.9139 3.34669 17.9562C3.58692 17.9846 3.82966 17.9846 4.06989 17.9562C4.43739 17.9097 4.64956 17.6566 4.65927 17.2829C4.66967 16.9348 4.66205 16.5881 4.66205 16.2414Z" fill="#343A40"/>
</svg>
