<svg width="24" height="24" viewBox="0 0 24 24" fill="none" xmlns="http://www.w3.org/2000/svg">
<path d="M8.72763 21C8.10474 20.7891 7.48278 20.5773 6.85942 20.3684C5.92953 20.057 4.99777 19.7518 4.06836 19.438C3.37834 19.2032 3 18.6683 3 17.9386V4.56336C3 3.63633 3.63839 3 4.56733 3C7.40752 3 10.2476 3 13.0874 3C14.022 3 14.7651 3.59782 14.9575 4.51076C14.9873 4.67195 15.0007 4.83575 14.9974 4.99964C15.0009 6.15803 15.0009 7.31814 14.9974 8.47998C14.9985 8.54449 14.9949 8.609 14.9866 8.67299C14.9762 8.76713 14.9303 8.85376 14.8583 8.91529C14.7863 8.97682 14.6936 9.00863 14.599 9.00426C14.5045 8.9999 14.4151 8.95969 14.3491 8.89179C14.283 8.8239 14.2453 8.73341 14.2436 8.63871C14.2436 8.59175 14.2436 8.54478 14.2436 8.49782C14.2436 7.31438 14.2436 6.13079 14.2436 4.94704C14.2436 4.36894 13.9253 3.93266 13.4019 3.79506C13.2882 3.76767 13.1715 3.75473 13.0546 3.75656C11.1103 3.75436 9.16621 3.75436 7.22226 3.75656C7.20505 3.75576 7.18785 3.75847 7.17171 3.76452C7.15557 3.77058 7.14083 3.77985 7.12838 3.79178C7.28704 3.84578 7.44523 3.90073 7.60389 3.95379C8.21411 4.15714 8.82433 4.35532 9.42985 4.5643C10.1006 4.79441 10.4729 5.30442 10.4996 6.01401C10.5024 6.09009 10.4996 6.16664 10.4996 6.24272V17.9841C10.57 17.9879 10.6315 17.994 10.693 17.994C11.4661 17.994 12.2392 17.994 13.0123 17.994C13.7854 17.994 14.2422 17.5305 14.2422 16.7551C14.2422 15.5538 14.2422 14.3526 14.2422 13.1513C14.2422 12.9165 14.3985 12.7469 14.6097 12.7422C14.8097 12.738 14.9721 12.8981 14.9923 13.1222C14.9974 13.1804 14.996 13.2396 14.996 13.2978C14.996 14.0595 14.996 14.8212 14.996 15.583C14.996 16.0751 15.0035 16.5692 14.9777 17.059C14.9308 17.9592 14.1018 18.7397 13.1968 18.7472C12.3711 18.7543 11.5454 18.7472 10.7198 18.7496H10.4992C10.4992 18.9482 10.5085 19.1394 10.4963 19.3296C10.4832 19.5385 10.4804 19.7555 10.4203 19.9523C10.2588 20.4787 9.88987 20.8065 9.3632 20.9591C9.32565 20.9704 9.28904 20.9864 9.25195 21H8.72763ZM3.7548 11.2606V15.4439C3.7548 16.2644 3.7548 17.0848 3.7548 17.9052C3.7548 18.3551 3.92144 18.5862 4.34484 18.728C5.78308 19.2089 7.2279 19.6705 8.65722 20.1758C9.24257 20.3829 9.75281 19.9983 9.7514 19.3826C9.74107 14.9588 9.73919 10.535 9.74576 6.11122C9.74576 5.64536 9.56457 5.39881 9.12099 5.25276C8.72732 5.12377 8.33396 4.99353 7.94092 4.86204C6.88336 4.50982 5.82861 4.15526 4.76777 3.80681C4.35892 3.67202 3.96133 3.83498 3.81864 4.2041C3.7723 4.34228 3.75115 4.48767 3.75621 4.63333C3.75339 6.84242 3.75292 9.0515 3.7548 11.2606Z" fill="#343A40"/>
<path d="M20.9991 10.9839C20.9121 11.0738 20.828 11.1637 20.7378 11.2509C19.8052 12.1396 18.8708 13.0265 17.9345 13.9113C17.8418 13.9929 17.7274 14.0489 17.6037 14.0731C17.4596 14.1019 17.3448 14.0161 17.2729 13.8934C17.2348 13.8359 17.2163 13.7686 17.22 13.7008C17.2237 13.6329 17.2495 13.5678 17.2937 13.5144C17.3368 13.4616 17.3842 13.412 17.4355 13.3661L19.701 11.2131H13.2202C12.88 11.2131 12.6924 11.0832 12.6914 10.8477C12.6905 10.6122 12.8804 10.4805 13.2178 10.4805H19.684C19.6187 10.413 19.579 10.3685 19.5356 10.3272C18.8236 9.64907 18.1109 8.97126 17.3977 8.29374C17.2895 8.19126 17.1987 8.08248 17.2243 7.92696C17.2343 7.86305 17.2621 7.80285 17.3048 7.75254C17.3474 7.70224 17.4034 7.66366 17.4669 7.64077C17.5305 7.61787 17.5993 7.6115 17.6662 7.6223C17.7332 7.63311 17.796 7.66069 17.848 7.70222C17.8838 7.73142 17.9178 7.76264 17.9496 7.79572C18.9212 8.71865 19.8925 9.64173 20.8635 10.565C20.9107 10.6099 20.9542 10.6643 20.9991 10.7142V10.9839Z" fill="#343A40"/>
</svg>
