<svg width="16" height="19" viewBox="0 0 16 19" fill="none" xmlns="http://www.w3.org/2000/svg">
<path d="M7.96813 15.4438C6.09352 15.4438 4.21892 15.4448 2.34432 15.4433C1.57794 15.4429 0.982254 14.9619 0.826159 14.2121C0.746409 13.8279 0.834911 13.472 1.02651 13.1301C1.27742 12.6823 1.53758 12.2354 1.74279 11.7661C1.99079 11.1996 2.05596 10.5893 2.05547 9.97125C2.05498 8.81878 2.03407 7.66484 2.0793 6.5143C2.13911 5.00879 2.74258 3.71918 3.81239 2.66493C5.12388 1.37288 6.71936 0.811233 8.54826 0.972191C11.1776 1.20415 13.3687 3.25429 13.7928 5.85588C13.855 6.23712 13.8808 6.62712 13.8861 7.01322C13.9002 8.10492 13.8856 9.1971 13.8997 10.2888C13.91 11.08 14.1482 11.8138 14.5368 12.4989C14.6535 12.7046 14.7775 12.9055 14.9 13.1077C15.2117 13.6227 15.2419 14.1523 14.9448 14.677C14.6467 15.2026 14.1735 15.4438 13.573 15.4438C11.7047 15.4438 9.83592 15.4438 7.96764 15.4438H7.96813ZM7.96424 14.3905C9.82619 14.3905 11.6877 14.3915 13.5496 14.3901C14.0267 14.3901 14.2251 14.0395 13.9839 13.6295C13.8608 13.4209 13.733 13.2147 13.6133 13.0047C13.1538 12.1969 12.8727 11.3309 12.8523 10.3997C12.827 9.26615 12.845 8.13166 12.8275 6.99815C12.8217 6.61837 12.8056 6.23032 12.7254 5.86123C12.0154 2.58663 8.37076 0.97365 5.50172 2.68292C4.00739 3.57329 3.19628 4.92563 3.1282 6.67332C3.08589 7.76939 3.11264 8.86838 3.11507 9.96591C3.1175 11.133 2.82525 12.2164 2.21302 13.2118C2.10847 13.382 1.99955 13.5503 1.90764 13.7278C1.76565 14.0015 1.91494 14.3084 2.21691 14.375C2.29277 14.3915 2.3735 14.3905 2.45179 14.3905C4.28943 14.3915 6.12659 14.391 7.96424 14.391V14.3905Z" fill="#343A40"/>
<path d="M8.04118 18.3107C6.9738 18.282 6.09606 17.9727 5.42208 17.2029C5.34233 17.1115 5.27523 16.9899 5.25237 16.8722C5.20472 16.6286 5.32823 16.4215 5.54122 16.3218C5.75372 16.2226 6.0061 16.262 6.16463 16.4628C6.8318 17.3041 8.17928 17.4349 9.05993 17.0201C9.34489 16.8859 9.57684 16.6909 9.7874 16.4589C10.0553 16.1637 10.5071 16.227 10.6617 16.5766C10.76 16.7978 10.7074 16.9997 10.5518 17.182C10.0417 17.7782 9.38622 18.1127 8.62325 18.2474C8.40929 18.2854 8.19046 18.2951 8.04166 18.3107H8.04118Z" fill="#343A40"/>
<circle cx="12.1797" cy="2.25391" r="2" fill="#9F1916"/>
</svg>
