<svg width="24" height="24" viewBox="0 0 24 24" fill="none" xmlns="http://www.w3.org/2000/svg">
<rect width="24" height="24" fill="#CDCDCD"/>
<g clip-path="url(#clip0_497_7921)">
<rect width="1440" height="1162" transform="translate(-203 -863)" fill="#F7F8FA"/>
<rect x="-153" y="-626" width="342" height="889" rx="16" fill="white"/>
<path d="M3.0005 9.15053C3.05639 9.02267 3.12078 8.8987 3.19323 8.77943C3.39934 8.48513 3.69661 8.35037 4.05036 8.34343C4.3838 8.33749 4.71774 8.33996 5.05119 8.34343C5.26919 8.34343 5.41039 8.46532 5.40593 8.63674C5.40147 8.80817 5.2677 8.91469 5.05614 8.91717C4.72864 8.92113 4.40115 8.91717 4.07365 8.91717C3.74616 8.91717 3.55788 9.10297 3.55788 9.43591C3.5559 12.1444 3.5559 14.8516 3.55788 17.5574C3.55788 17.9042 3.75111 18.091 4.10288 18.091C6.2961 18.091 8.48964 18.091 10.6835 18.091C10.9347 18.091 11.0561 18.1852 11.0516 18.3769C11.0555 18.4426 11.0336 18.5073 10.9906 18.5571C10.9476 18.607 10.8868 18.6381 10.8213 18.644C10.7476 18.6525 10.6733 18.6548 10.5993 18.6509C8.48618 18.6509 6.37256 18.64 4.25747 18.6583C3.62626 18.6638 3.20016 18.4398 3 17.8299L3.0005 9.15053Z" fill="#E51F1B"/>
<path d="M17.7985 11.3953V11.6004C17.7985 13.5728 17.7861 15.5447 17.8059 17.5167C17.8118 18.1048 17.3937 18.6929 16.6609 18.6562C16.2363 18.6359 15.8107 18.6527 15.3598 18.6527V18.8668C15.3598 19.4232 15.3598 19.9796 15.3598 20.536C15.3598 20.6876 15.338 20.8199 15.1765 20.8828C15.015 20.9457 14.9184 20.858 14.8163 20.7624C14.141 20.1272 13.4613 19.4965 12.7914 18.8554C12.6393 18.7067 12.4877 18.6151 12.2707 18.6493C12.197 18.6582 12.1224 18.6582 12.0487 18.6493C11.8897 18.6344 11.801 18.5403 11.7931 18.3847C11.7851 18.2291 11.8753 18.1127 12.0274 18.1008C12.2616 18.0827 12.4969 18.0837 12.731 18.1038C12.8107 18.1102 12.8925 18.1875 12.9584 18.2484C13.5603 18.8083 14.1589 19.3716 14.7787 19.9523C14.7867 19.9009 14.7922 19.8492 14.795 19.7972C14.795 19.3459 14.795 18.8945 14.795 18.4432C14.795 18.1954 14.8941 18.0963 15.1418 18.0939C15.6546 18.0939 16.1679 18.0939 16.6807 18.0939C17.0439 18.0939 17.2336 17.9125 17.2341 17.5489C17.2366 15.4902 17.2341 13.4316 17.2381 11.3725C17.2381 11.2586 17.1975 11.2179 17.0934 11.1798C16.0396 10.7943 15.2905 10.0848 14.8698 9.0409C14.8143 8.90317 14.7261 8.91753 14.6221 8.91753C11.9466 8.91753 9.2702 8.91753 6.59276 8.91753C6.51871 8.92012 6.44458 8.91598 6.37129 8.90515C6.30556 8.89839 6.24489 8.86677 6.2017 8.81676C6.1585 8.76675 6.13604 8.70213 6.13892 8.63612C6.13545 8.47608 6.22612 8.38343 6.37674 8.35173C6.44397 8.3418 6.51203 8.33881 6.57987 8.34281H14.6518C14.6375 8.20259 14.6216 8.07774 14.6127 7.95189C14.5509 7.04592 14.8249 6.14891 15.3823 5.43208C15.9398 4.71525 16.7417 4.22879 17.635 4.06554C18.6799 3.8743 19.6307 4.10419 20.4908 4.72103C20.6686 4.84836 20.7117 5.02425 20.6082 5.16347C20.5046 5.30269 20.3382 5.31211 20.1657 5.18378C19.7661 4.8917 19.3047 4.69525 18.8171 4.60955C17.1945 4.31228 15.5268 5.45975 15.236 7.08187C14.9214 8.83826 15.9886 10.4108 17.7385 10.7705C19.3542 11.1025 21.0457 9.96295 21.3623 8.33537C21.5152 7.59679 21.3975 6.82785 21.0308 6.16875C20.9208 5.96611 20.9481 5.80508 21.1012 5.71838C21.2543 5.63168 21.4108 5.6941 21.5223 5.89179C22.7609 8.0931 21.4331 10.9093 18.9459 11.3269C18.5793 11.3889 18.1983 11.3735 17.7985 11.3953Z" fill="#E51F1B"/>
<path d="M7.99314 14.5582C8.08545 14.6339 8.17392 14.7141 8.2582 14.7985C8.30998 14.8511 8.33875 14.9221 8.33819 14.9959C8.33763 15.0696 8.30779 15.1402 8.25523 15.1919C8.20267 15.2437 8.13169 15.2725 8.05792 15.2719C7.98414 15.2714 7.91361 15.2415 7.86184 15.189C7.77843 15.1035 7.70018 15.0132 7.62749 14.9184C7.14343 15.2608 6.64054 15.3569 6.10397 15.2266C5.69112 15.1266 5.32987 14.8774 5.08977 14.527C4.84618 14.1807 4.73399 13.759 4.77333 13.3374C4.81268 12.9158 5.00099 12.5221 5.30446 12.2269C5.60793 11.9316 6.00669 11.7542 6.42917 11.7265C6.85165 11.6987 7.27019 11.8225 7.60966 12.0755C8.25177 12.5556 8.6293 13.547 7.99314 14.5582ZM7.17761 14.5137C7.135 14.4696 7.09339 14.425 7.05078 14.3814C7.00817 14.3378 6.95169 14.2872 6.90759 14.2362C6.79116 14.1049 6.7872 13.9513 6.89521 13.8398C7.00322 13.7284 7.17118 13.718 7.30545 13.8448C7.3981 13.932 7.47984 14.0306 7.57101 14.1282C7.90544 13.6139 7.76919 12.9123 7.28959 12.5427C7.04638 12.3576 6.74231 12.2709 6.43804 12.3C6.13376 12.3291 5.85163 12.4718 5.64793 12.6997C5.44422 12.9276 5.33392 13.224 5.33901 13.5296C5.3441 13.8352 5.46422 14.1277 5.6754 14.3487C6.0787 14.7648 6.77332 14.8441 7.17761 14.5127V14.5137Z" fill="#E51F1B"/>
<path d="M11.1367 13.0842C11.1367 12.7503 11.1367 12.4164 11.1367 12.0824C11.1367 11.858 11.2506 11.7197 11.4216 11.7188C11.5925 11.7178 11.7089 11.8595 11.7099 12.0794C11.7099 12.7285 11.7144 13.378 11.7099 14.0271C11.7055 14.6672 11.2011 15.2048 10.5619 15.2717C10.1022 15.3212 9.71026 15.1874 9.38276 14.859C9.27534 14.7516 9.19084 14.6236 9.13437 14.4827C9.0779 14.3417 9.05065 14.1908 9.05428 14.039C9.05081 13.384 9.05428 12.7285 9.05428 12.073C9.05428 11.8555 9.17764 11.7133 9.35155 11.7192C9.52545 11.7252 9.62901 11.859 9.63 12.0705C9.63297 12.7072 9.63 13.3438 9.63 13.981C9.63 14.367 9.81679 14.6018 10.1923 14.6974C10.5119 14.7787 10.9325 14.6127 11.0738 14.3333C11.1155 14.2377 11.1364 14.1343 11.1352 14.0301C11.1416 13.7149 11.1367 13.3993 11.1367 13.0842Z" fill="#E51F1B"/>
<path d="M14.2779 14.7197C14.7734 14.7197 15.2381 14.7197 15.7009 14.7197C15.8466 14.7197 15.9575 14.7717 16.0101 14.9079C16.0269 14.9499 16.033 14.9955 16.0277 15.0405C16.0224 15.0854 16.0059 15.1283 15.9797 15.1652C15.9535 15.2022 15.9185 15.2319 15.8779 15.2518C15.8372 15.2717 15.7922 15.2811 15.747 15.279C15.0801 15.2855 14.4132 15.288 13.7463 15.279C13.4827 15.2751 13.3901 15.0392 13.5481 14.7965C14.0466 14.0236 14.5476 13.2525 15.0514 12.4832C15.0845 12.4336 15.1148 12.3801 15.1603 12.3048C15.0821 12.2994 15.0246 12.2924 14.9671 12.2924C14.603 12.2924 14.2383 12.2954 13.8741 12.2924C13.6438 12.289 13.5273 12.18 13.5333 11.9952C13.5397 11.8208 13.6606 11.7232 13.8801 11.7227C14.4608 11.7227 15.0414 11.7227 15.6216 11.7227C15.7594 11.7227 15.905 11.744 15.9397 11.8876C15.965 12.0027 15.9474 12.1231 15.8902 12.226C15.3947 13.0024 14.8918 13.7699 14.3904 14.5403C14.3572 14.5864 14.3275 14.6384 14.2779 14.7197Z" fill="#E51F1B"/>
<path d="M18.5811 8.08963C18.5811 8.37501 18.5811 8.6589 18.5811 8.9428C18.5811 9.15832 18.4731 9.27624 18.2933 9.27079C18.1243 9.26534 18.0247 9.14643 18.0238 8.94131C18.0238 8.58855 18.0238 8.23612 18.0238 7.88401C18.0238 7.64372 18.1085 7.54116 18.3513 7.52927C18.5529 7.51733 18.7436 7.4333 18.8885 7.29251C19.0334 7.15172 19.1228 6.96355 19.1405 6.7623C19.1574 6.30698 18.8968 5.95917 18.4543 5.86256C17.9752 5.75801 17.5011 6.13109 17.4634 6.6424C17.449 6.84603 17.3643 6.95355 17.2038 6.96643C17.0234 6.9808 16.9065 6.86734 16.8991 6.6751C16.8758 5.98493 17.4936 5.3349 18.1818 5.28783C18.5269 5.25987 18.8702 5.3594 19.1467 5.56759C19.4233 5.77578 19.614 6.07815 19.6825 6.41746C19.8232 7.15123 19.4195 7.7978 18.6882 8.04107C18.656 8.05395 18.6223 8.07129 18.5811 8.08963Z" fill="#E51F1B"/>
<path d="M12.9224 13.5138V14.8288C12.9224 14.8783 12.9224 14.9278 12.9224 14.9774C12.908 15.1756 12.8109 15.2781 12.6429 15.2796C12.475 15.2811 12.357 15.1647 12.3551 14.966C12.3516 14.4968 12.3551 14.0276 12.3551 13.5584C12.3551 13.058 12.3551 12.5581 12.3551 12.0582C12.3551 11.855 12.4794 11.7173 12.6454 11.7208C12.8114 11.7242 12.9129 11.8526 12.9228 12.0512C12.9228 12.0943 12.9228 12.1374 12.9228 12.1806L12.9224 13.5138Z" fill="#E51F1B"/>
<path d="M18.5777 9.86762C18.577 9.93932 18.5492 10.0081 18.4998 10.0601C18.4505 10.1121 18.3832 10.1435 18.3117 10.148C18.24 10.1466 18.1715 10.1184 18.1196 10.069C18.0677 10.0196 18.0362 9.9525 18.0312 9.881C18.0321 9.80927 18.0602 9.74055 18.1097 9.68869C18.1593 9.63683 18.2267 9.6057 18.2983 9.60156C18.3701 9.60172 18.4391 9.6294 18.4911 9.6789C18.543 9.72839 18.5741 9.79594 18.5777 9.86762Z" fill="#E51F1B"/>
</g>
<defs>
<clipPath id="clip0_497_7921">
<rect width="1440" height="1162" fill="white" transform="translate(-203 -863)"/>
</clipPath>
</defs>
</svg>
