<svg width="64" height="43" viewBox="0 0 64 43" fill="none" xmlns="http://www.w3.org/2000/svg">
<g clip-path="url(#clip0_2605_14895)">
<path d="M37.8203 2.05301H38.6702V1.20312H37.8203V2.05301Z" fill="#708187"/>
<path d="M39.0938 2.05301H39.9436V1.20312H39.0938V2.05301Z" fill="#708187"/>
<path d="M52.6914 10.553H53.5413V9.70312H52.6914V10.553Z" fill="#708187"/>
<path d="M50.9922 10.553H51.8421V9.70312H50.9922V10.553Z" fill="#708187"/>
<path d="M61.0735 8.91683C61.2451 8.83759 61.3919 8.71335 61.4985 8.55733C61.6118 8.38518 61.6893 8.19195 61.7262 7.98918C61.7735 7.74145 61.7961 7.48965 61.7938 7.23746V2.26562H61.0761V7.23746C61.078 7.40797 61.0675 7.5784 61.0446 7.74739C61.0304 7.86557 60.9941 7.98003 60.9376 8.08479C60.8902 8.16712 60.8181 8.2324 60.7315 8.27135C60.6248 8.31332 60.5107 8.33285 60.3962 8.32871C60.3394 8.32918 60.2826 8.3262 60.2262 8.31979C60.1597 8.31035 60.0939 8.29615 60.0295 8.27729L59.8438 8.96103C60.0331 9.01342 60.2286 9.04029 60.4251 9.04092C60.6478 9.04759 60.8692 9.00507 61.0735 8.91641" fill="#708187"/>
<mask id="mask0_2605_14895" style="mask-type:luminance" maskUnits="userSpaceOnUse" x="57" y="0" width="2" height="2">
<path d="M57.043 0.078125H58.6106V1.55523H57.043V0.078125Z" fill="white"/>
</mask>
<g mask="url(#mask0_2605_14895)">
<path d="M58.6103 1.00944H57.6278V0.844989C57.623 0.771044 57.6434 0.697642 57.6856 0.636767C57.7163 0.612098 57.7517 0.593917 57.7896 0.583325C57.8275 0.572733 57.8671 0.569952 57.9062 0.575151H58.3978V0.080092H57.8926C57.6624 0.064608 57.4355 0.141014 57.2615 0.292564C57.1814 0.386301 57.1207 0.495099 57.0831 0.612579C57.0455 0.730059 57.0318 0.853859 57.0427 0.976722V1.55719H58.6103V1.00944Z" fill="#708187"/>
</g>
<mask id="mask1_2605_14895" style="mask-type:luminance" maskUnits="userSpaceOnUse" x="0" y="0" width="64" height="43">
<path d="M0 42.4258H63.6403V0.078125H0V42.4258Z" fill="white"/>
</mask>
<g mask="url(#mask1_2605_14895)">
<path d="M56.6158 9.04113C56.4012 9.04096 56.1872 9.01571 55.9784 8.96591C55.7312 8.90466 55.4877 8.82918 55.2492 8.73984L55.4727 8.05611C55.6671 8.1453 55.8692 8.21642 56.0766 8.26858C56.2719 8.31205 56.4715 8.33301 56.6715 8.33105C56.9907 8.34981 57.3074 8.26581 57.5754 8.09138C57.6892 7.99376 57.778 7.87017 57.834 7.73105C57.8901 7.59193 57.9118 7.44136 57.8975 7.29206V6.58666L57.657 7.08767H57.4657C57.0828 7.08972 56.7012 7.04346 56.3299 6.94998C55.9919 6.86719 55.6721 6.72317 55.3861 6.52504C55.1159 6.33346 54.8951 6.08048 54.7418 5.78692C54.5761 5.45195 54.4947 5.08157 54.5047 4.70799C54.5015 4.37204 54.5742 4.03971 54.7172 3.73572C54.8609 3.43739 55.0677 3.17381 55.3232 2.96317C55.6011 2.73755 55.9179 2.56473 56.258 2.45324C56.6476 2.32478 57.0556 2.26146 57.4657 2.26584H58.6105V7.2211C58.6345 7.70895 58.464 8.1864 58.1363 8.54862C57.929 8.72868 57.6875 8.86509 57.4262 8.94971C57.165 9.03433 56.8894 9.06543 56.6158 9.04113ZM57.1474 2.98484C56.9082 2.98771 56.6711 3.02977 56.4454 3.10935C56.2194 3.18881 56.0091 3.30748 55.8242 3.45993C55.6428 3.61137 55.4938 3.7978 55.3861 4.0081C55.2749 4.22511 55.218 4.46586 55.2203 4.70968C55.2159 4.95505 55.2679 5.19816 55.3725 5.42019C55.4715 5.62415 55.6151 5.80322 55.7927 5.94414C55.9781 6.08965 56.1889 6.19944 56.4144 6.26795C56.6591 6.34371 56.9139 6.3814 57.17 6.37971H57.8953V3.18754L58.3037 2.98484H57.1474Z" fill="#708187"/>
<path d="M53.3392 8.96897H40.2913C40.0686 8.97574 39.8472 8.93323 39.6428 8.84447C39.4713 8.7652 39.3245 8.64097 39.2179 8.48496C39.2055 8.46712 39.1945 8.44714 39.1835 8.42802L39.1737 8.41102V8.94305H37.6864C37.2405 8.94986 36.7979 8.8653 36.386 8.69458C35.974 8.52386 35.6013 8.27059 35.291 7.95039C34.698 7.32138 34.3712 6.48741 34.379 5.62297V5.60428C34.3726 4.73551 34.7026 3.89796 35.2999 3.26709C35.6112 2.94496 35.9852 2.68995 36.3987 2.51777C36.8123 2.3456 37.2567 2.25989 37.7046 2.26592H39.6381V7.16637C39.6363 7.33687 39.6466 7.50728 39.6692 7.6763C39.6836 7.79457 39.7199 7.90913 39.7762 8.01413C39.8237 8.0961 39.8956 8.16117 39.9819 8.20025C40.0887 8.24234 40.2029 8.26202 40.3176 8.25804H52.6235V2.26592H53.3396V8.96855L53.3392 8.96897ZM37.686 2.93903C37.3428 2.9381 37.003 3.0067 36.6871 3.1407C36.3712 3.2747 36.0857 3.47132 35.8478 3.71869C35.61 3.96606 35.4247 4.25905 35.3033 4.57999C35.1818 4.90092 35.1266 5.24314 35.141 5.586V5.60428C35.1307 5.94857 35.1893 6.29144 35.3133 6.61281C35.4372 6.93417 35.6241 7.22756 35.8629 7.47578C36.1017 7.72401 36.3876 7.92207 36.704 8.05837C37.0203 8.19466 37.3606 8.26645 37.7051 8.26952H39.101C39.0514 8.15602 39.0142 8.03748 38.9901 7.91597C38.9431 7.66863 38.9206 7.41726 38.923 7.16552V3.1583L39.3611 2.94116L37.686 2.93903Z" fill="#708187"/>
<path d="M30.7993 7.17823L31.1107 7.99667L26.566 2.25781H25.8555V8.92942H26.5949V3.90064L26.1742 2.92837L30.9335 8.92857H31.5382V2.25781H30.7993V7.17823Z" fill="#708187"/>
<path d="M40.9918 19.5869L45.1176 15.6774V12.9922H34.0924V16.0463H39.7442L41.8438 14.7064L36.6094 19.9336L37.1694 22.2016H38.661C40.6659 22.2016 41.8544 22.9422 41.8544 24.2613V24.3071C41.8544 25.5106 40.8987 26.2738 39.547 26.2738C37.8918 26.2738 36.7266 25.5799 35.6078 24.3301L33.1367 26.6677C34.5352 28.3105 36.563 29.4677 39.5002 29.4677C43.1365 29.4677 45.3742 27.2231 45.3742 24.1686V24.1223C45.3742 21.1137 43.207 19.9579 40.9918 19.5869Z" fill="#708187"/>
<path d="M21.1793 9.0404C20.7185 9.04744 20.2612 8.96005 19.8355 8.78363C19.4098 8.60721 19.0247 8.34549 18.704 8.01459C18.0913 7.3645 17.7537 6.50268 17.7619 5.60941V5.59071C17.7553 4.6932 18.0963 3.82796 18.7133 3.17618C19.035 2.84317 19.4214 2.57954 19.8488 2.40151C20.2761 2.22348 20.7354 2.13483 21.1984 2.14102C21.6591 2.13395 22.1164 2.22128 22.5421 2.39763C22.9678 2.57397 23.3529 2.83561 23.6737 3.16641C24.2862 3.81639 24.6236 4.67808 24.6153 5.57116V5.59071C24.622 6.48816 24.2812 7.35339 23.6643 8.00524C23.3427 8.33825 22.9563 8.60188 22.5289 8.77991C22.1015 8.95794 21.6422 9.04659 21.1793 9.0404ZM21.1793 2.83623C20.8246 2.83517 20.4735 2.90598 20.147 3.04439C19.8205 3.1828 19.5254 3.38593 19.2796 3.64153C19.0337 3.89713 18.8422 4.19989 18.7167 4.53154C18.5911 4.86319 18.534 5.21685 18.5489 5.57116V5.59071C18.5382 5.94652 18.5986 6.30089 18.7266 6.63304C18.8547 6.96518 19.0478 7.26842 19.2945 7.52497C19.5413 7.78152 19.8368 7.98622 20.1637 8.12707C20.4907 8.26791 20.8424 8.34207 21.1984 8.34519C21.5529 8.34613 21.904 8.27524 22.2304 8.13678C22.5568 7.99832 22.8518 7.79517 23.0975 7.53958C23.3433 7.28399 23.5347 6.98127 23.6602 6.64968C23.7857 6.31809 23.8428 5.9645 23.8279 5.61026V5.59071C23.8386 5.235 23.7781 4.88075 23.6501 4.54871C23.5221 4.21667 23.3291 3.91352 23.0824 3.65703C22.8357 3.40053 22.5403 3.19585 22.2135 3.05498C21.8867 2.91411 21.5351 2.83946 21.1793 2.83623Z" fill="#708187"/>
<path d="M54.9451 29.4655C52.6339 29.5034 50.4013 28.6271 48.7329 27.0272C47.9535 26.2579 47.3363 25.3401 46.9179 24.3281C46.4995 23.3161 46.2884 22.2304 46.2971 21.1353V21.0886C46.2905 19.9883 46.5047 18.8978 46.9271 17.8817C47.3495 16.8657 47.9715 15.9447 48.7563 15.1734C50.4288 13.5628 52.6698 12.6782 54.9915 12.7121C57.3025 12.6743 59.535 13.5506 61.2033 15.1504C61.9827 15.9195 62.5998 16.837 63.0183 17.8488C63.4368 18.8606 63.648 19.9461 63.6395 21.041V21.0873C63.6461 22.1877 63.4319 23.2782 63.0095 24.2944C62.5871 25.3105 61.9651 26.2315 61.1803 27.0029C59.508 28.614 57.267 29.4991 54.9451 29.4655ZM54.9451 15.9978C52.1545 15.9978 50.0498 18.165 50.0498 21.0418V21.0882C50.0329 21.7488 50.148 22.4062 50.3885 23.0218C50.629 23.6373 50.9899 24.1987 51.4502 24.6729C51.9105 25.1471 52.4608 25.5247 53.0689 25.7835C53.677 26.0422 54.3306 26.177 54.9915 26.1798C57.7821 26.1798 59.8868 24.0126 59.8868 21.1353V21.0886C59.9036 20.428 59.7884 19.7708 59.5479 19.1553C59.3073 18.5399 58.9464 17.9787 58.4861 17.5045C58.0258 17.0304 57.4756 16.653 56.8675 16.3943C56.2595 16.1357 55.6059 16.0006 54.9451 15.9978Z" fill="#708187"/>
<path d="M15.6953 8.92942H16.4534V2.25781H15.6953V8.92942Z" fill="#708187"/>
<path d="M3.51229 27.3368L4.20494 26.806L7.77064 24.0732C10.6603 21.8516 12.0596 20.5096 12.0596 17.8023V17.7564C12.0596 14.7249 9.82184 12.7578 6.44227 12.7578C3.52843 12.7578 1.96677 13.9383 0.357934 16.1149L2.8753 18.1278C4.08766 16.6452 4.95029 15.9517 6.20898 15.9517C7.49103 15.9517 8.40041 16.6919 8.40041 18.0577C8.40041 19.3997 7.60789 20.2789 5.58006 21.9451L0.148438 26.3645V29.1878H12.2228V26.1095H6.00118L3.51229 27.3368Z" fill="#708187"/>
<path d="M3.56145 8.97616L6.45064 2.25781H5.63475L3.3511 7.72598L3.42419 8.45901L3.23467 8.00389L1.25783 3.25133L0.844787 2.25781H0L2.88961 8.97616H3.56145Z" fill="#708187"/>
<path d="M7.48047 8.92942H8.23857V2.25781H7.48047V8.92942Z" fill="#708187"/>
<path d="M12.2533 5.22621C10.7749 4.91175 10.4294 4.55905 10.4294 3.93013V3.91144C10.4294 3.31099 10.9861 2.83463 11.8598 2.83463C12.5719 2.83468 13.2602 3.09112 13.7988 3.55703L14.2403 2.97784C13.58 2.42481 12.7399 2.13302 11.8789 2.1577C10.6041 2.1577 9.66921 2.92982 9.66921 3.97815V3.99685C9.66921 5.0932 10.3793 5.58826 11.9248 5.92184C13.336 6.2193 13.6722 6.56988 13.6722 7.18945V7.20814C13.6722 7.86596 13.0773 8.34189 12.1747 8.34189C11.7472 8.34592 11.3232 8.26459 10.9276 8.10267C10.532 7.94076 10.1726 7.70151 9.87063 7.39894L9.40234 7.9518C10.1453 8.64858 11.129 9.03107 12.1475 9.01925C13.4818 9.01925 14.4422 8.2756 14.4422 7.1325V7.11381C14.4422 6.09394 13.7512 5.55087 12.2537 5.22664" fill="#708187"/>
<path d="M3.31641 37.699H3.7371V37.2812H3.31641V37.699Z" fill="#708187"/>
<path d="M31.6178 36.7988H26.9795C26.7617 36.7995 26.5447 36.7718 26.334 36.7164C26.1408 36.6679 25.9584 36.5834 25.7965 36.4673C25.6428 36.3556 25.5166 36.2103 25.4276 36.0424C25.3312 35.85 25.2838 35.6367 25.2895 35.4216C25.2883 35.232 25.3295 35.0445 25.4102 34.873C25.4903 34.7033 25.6063 34.5531 25.7502 34.4327C25.9079 34.3036 26.0885 34.2054 26.2826 34.1433C26.5079 34.0716 26.7432 34.0365 26.9795 34.0392H27.6246V36.3921H29.253V34.0392H29.6626V36.3921H31.209V34.0392H31.6182V36.7984L31.6178 36.7988ZM26.81 34.4459C26.6706 34.4459 26.5322 34.4691 26.4003 34.5143C26.2709 34.5585 26.1504 34.6255 26.0447 34.7123C25.9413 34.798 25.856 34.9035 25.7939 35.0225C25.7303 35.1458 25.6977 35.2828 25.6992 35.4216C25.6968 35.5628 25.7266 35.7027 25.7863 35.8308C25.8425 35.9486 25.9237 36.0527 26.0243 36.1359C26.1291 36.221 26.2491 36.2858 26.3778 36.3267C26.5177 36.3711 26.6637 36.3932 26.8104 36.3921H27.2149V34.4459H26.81Z" fill="#708187"/>
<path d="M22.8555 36.7966H23.2651V33.1484H22.8555V36.7966Z" fill="#708187"/>
<path d="M27.2031 33.5662H27.6238V33.1484H27.2031V33.5662Z" fill="#708187"/>
<path d="M31.2031 37.6907H31.6238V37.2734H31.2031V37.6907Z" fill="#708187"/>
<path d="M4.03125 37.699H4.45194V37.2812H4.03125V37.699Z" fill="#708187"/>
<path d="M9.13483 37.9154C9.01164 37.9155 8.88885 37.9013 8.76896 37.873C8.62747 37.8387 8.48813 37.7961 8.35166 37.7455L8.47915 37.3537C8.59038 37.4048 8.70601 37.4458 8.82462 37.4761C8.93626 37.5006 9.05029 37.5124 9.16458 37.5113C9.34708 37.5222 9.52824 37.4741 9.68131 37.3741C9.74722 37.318 9.79856 37.2469 9.8309 37.1666C9.86325 37.0864 9.87564 36.9995 9.86701 36.9134V36.7966H9.62139C9.40209 36.7977 9.18352 36.7713 8.97081 36.718C8.77738 36.6705 8.59431 36.588 8.4307 36.4745C8.27592 36.365 8.14947 36.2202 8.06185 36.0521C7.96684 35.8603 7.9203 35.6481 7.9263 35.4342C7.92488 35.2419 7.96701 35.0517 8.04953 34.878C8.13088 34.7073 8.24832 34.5564 8.39373 34.4356C8.55274 34.3063 8.73406 34.2072 8.92874 34.1432C9.15179 34.07 9.38537 34.034 9.62012 34.0366H10.2767V36.3899H11.6951L10.9727 34.6872C11.0804 34.5905 11.1939 34.5005 11.3127 34.4177C11.4323 34.3339 11.559 34.2607 11.6913 34.1989C11.82 34.1392 11.9536 34.0909 12.0907 34.0544C12.3504 33.9835 12.6244 33.9835 12.8841 34.0544C13.0199 34.0912 13.1519 34.1406 13.2785 34.2019C13.4097 34.2658 13.5362 34.339 13.6571 34.4207C13.7786 34.5025 13.895 34.5916 14.0055 34.6876L13.287 36.3899H15.438V34.2907H15.8472V36.3899H16.6406C16.7291 36.3905 16.8173 36.3776 16.9019 36.3517C16.9829 36.3268 17.0579 36.2854 17.1221 36.2301C17.1885 36.1714 17.2407 36.0985 17.275 36.0168C17.3155 35.9155 17.3348 35.8071 17.332 35.6981V34.2907H17.7425V35.7291C17.7453 35.8252 17.768 35.9197 17.8092 36.0066C17.8502 36.0925 17.908 36.1694 17.9792 36.2327C18.054 36.2989 18.1404 36.3506 18.2341 36.3852C18.339 36.4233 18.4498 36.4422 18.5613 36.4409C18.6666 36.4487 18.7723 36.4337 18.8713 36.3971C18.9703 36.3604 19.0602 36.3029 19.135 36.2284C19.2666 36.0717 19.3343 35.8711 19.3245 35.6666V34.2907H19.7342V35.6021C19.7363 35.7305 19.7242 35.8588 19.6981 35.9845C19.7728 36.1161 19.8853 36.2223 20.021 36.2892C20.1988 36.365 20.3914 36.3997 20.5845 36.3908H21.2551V33.1484H21.6647V36.7966H20.4812V36.7919C20.3822 36.7892 20.2835 36.7771 20.1868 36.7558C20.0875 36.733 19.9918 36.6972 19.902 36.6491C19.8301 36.6103 19.7653 36.5596 19.7104 36.4991C19.6626 36.4466 19.6199 36.3897 19.5829 36.3291C19.4968 36.4995 19.3574 36.637 19.186 36.7209C18.9894 36.8106 18.7748 36.8542 18.5588 36.8484C18.3475 36.8536 18.1382 36.8066 17.9494 36.7116C17.7824 36.6231 17.6426 36.4909 17.5449 36.3291C17.4489 36.4714 17.3197 36.5881 17.1684 36.6691C17.0054 36.7557 16.823 36.7996 16.6385 36.7966H10.2767V36.8731C10.2904 37.1523 10.1927 37.4256 10.0051 37.6329C9.88648 37.736 9.74828 37.8142 9.59875 37.8628C9.44922 37.9113 9.29144 37.9292 9.13483 37.9154ZM12.4885 34.4483C12.3113 34.4476 12.1355 34.4786 11.9692 34.5397C11.7922 34.6074 11.6284 34.7055 11.4852 34.8295L12.1252 36.3899H12.8556L13.496 34.8295C13.3584 34.7142 13.2028 34.6224 13.0354 34.5575C12.8618 34.4864 12.6761 34.4493 12.4885 34.4483ZM9.45227 34.4483C9.31084 34.4481 9.17042 34.4721 9.0371 34.5193C8.90767 34.5647 8.78727 34.6326 8.68142 34.7199C8.57755 34.8059 8.49226 34.9122 8.4307 35.0322C8.3674 35.1565 8.33504 35.2943 8.33637 35.4338C8.33307 35.5742 8.36215 35.7135 8.42135 35.8409C8.47792 35.9577 8.56014 36.0603 8.66187 36.1409C8.76816 36.2241 8.88888 36.2871 9.01797 36.3266C9.15814 36.3694 9.304 36.3908 9.45057 36.3899H9.86531V34.4483H9.45227Z" fill="#708187"/>
<path d="M1.91406 33.5662H2.33476V33.1484H1.91406V33.5662Z" fill="#708187"/>
<path d="M43.3398 33.5662H43.7605V33.1484H43.3398V33.5662Z" fill="#708187"/>
<path d="M39.7148 36.7966H40.1245V33.1484H39.7148V36.7966Z" fill="#708187"/>
<path d="M26.4844 33.5662H26.9051V33.1484H26.4844V33.5662Z" fill="#708187"/>
<path d="M7.27485 35.1984C7.27603 35.0469 7.2544 34.896 7.21068 34.7509C7.17198 34.6194 7.10481 34.498 7.01394 34.3953C6.91171 34.2817 6.78696 34.1907 6.64763 34.128C6.4909 34.0648 6.32278 34.0347 6.15385 34.0396H5.85172V34.4458H6.20994C6.30742 34.4455 6.40373 34.4671 6.49168 34.5091C6.57582 34.5482 6.65081 34.6045 6.7118 34.6744C6.76822 34.7428 6.80924 34.8225 6.83206 34.9082C6.8561 35.008 6.86738 35.1106 6.86563 35.2133V36.3925H4.94531V36.7992H7.27485V35.1984Z" fill="#708187"/>
<path d="M61.3828 36.7966H61.7925V33.1484H61.3828V36.7966Z" fill="#708187"/>
<path d="M44.0586 33.5662H44.4793V33.1484H44.0586V33.5662Z" fill="#708187"/>
<path d="M57.0039 37.2593C56.799 37.2609 56.5961 37.2184 56.409 37.1348C56.23 37.0541 56.0688 36.9385 55.9348 36.7949H54.1313C53.9936 36.9407 53.8272 37.0564 53.6426 37.1348C53.449 37.2168 53.2406 37.2583 53.0303 37.2568C52.8254 37.2582 52.6225 37.2158 52.4354 37.1323C52.2566 37.0513 52.0955 36.9358 51.9616 36.7923H43.8345C43.617 36.7933 43.4003 36.7659 43.1899 36.7107C42.9967 36.6622 42.8144 36.5779 42.6523 36.4621C42.4987 36.3507 42.3726 36.2056 42.2835 36.0381C42.187 35.8462 42.1395 35.6335 42.145 35.4189C42.1438 35.2295 42.185 35.0422 42.2656 34.8707C42.3457 34.701 42.4617 34.5508 42.6056 34.4305C42.7631 34.3013 42.9436 34.2031 43.1376 34.1411C43.3627 34.0694 43.5979 34.0342 43.8341 34.037H44.48V36.3899H48.2692V35.7674C48.2702 35.6684 48.2599 35.5696 48.2386 35.4729C48.2187 35.3863 48.1782 35.3059 48.1205 35.2383C48.0585 35.1676 47.9804 35.1129 47.8927 35.079C47.786 35.0371 47.672 35.017 47.5575 35.0199H45.468C45.4189 34.9654 45.3783 34.9038 45.3478 34.8372C45.3161 34.7642 45.2945 34.6873 45.2836 34.6085L46.0702 33.1484H46.5159L45.7447 34.6136H47.557C47.73 34.6078 47.9024 34.6367 48.064 34.6986C48.2011 34.7599 48.3234 34.8503 48.4222 34.9634C48.5134 35.0663 48.58 35.1887 48.6168 35.3212C48.6583 35.466 48.6791 35.6159 48.6785 35.7665V36.3899H49.9835V33.1484H50.3935V36.3899H51.6939C51.6558 36.2969 51.626 36.2008 51.6046 36.1026C51.5819 36.0001 51.5707 35.8953 51.571 35.7903C51.5677 35.5005 51.65 35.2162 51.8076 34.973C51.9653 34.7298 52.1912 34.5386 52.4571 34.4233C52.638 34.345 52.8332 34.3053 53.0303 34.3064C53.2331 34.3049 53.4342 34.3438 53.6218 34.4207C53.7985 34.4931 53.9593 34.5994 54.0952 34.7335C54.2301 34.8678 54.3372 35.0273 54.4105 35.203C54.4878 35.3891 54.527 35.5888 54.5257 35.7903C54.527 35.997 54.4835 36.2016 54.3982 36.3899H55.6679C55.6299 36.2969 55.5999 36.2008 55.5783 36.1026C55.5559 36 55.5448 35.8953 55.5451 35.7903C55.5415 35.5006 55.6236 35.2163 55.7811 34.973C55.9386 34.7298 56.1644 34.5386 56.4303 34.4233C56.6113 34.345 56.8067 34.3052 57.0039 34.3064C57.2066 34.3049 57.4075 34.3438 57.595 34.4207C57.7718 34.4932 57.9327 34.5995 58.0689 34.7335C58.2035 34.8679 58.3105 35.0274 58.3837 35.203C58.4612 35.3891 58.5004 35.5888 58.4989 35.7903C58.5002 35.997 58.4567 36.2016 58.3714 36.3899H59.7801V33.1484H60.1897V36.7966H58.1075C57.9696 36.9423 57.8031 37.0581 57.6184 37.1365C57.4242 37.2191 57.215 37.2609 57.0039 37.2593ZM57.0039 34.7131C56.8587 34.7113 56.7148 34.7403 56.5816 34.7981C56.4575 34.853 56.3453 34.9317 56.2514 35.0297C56.1581 35.1283 56.0842 35.2436 56.0338 35.3696C55.9806 35.5014 55.9536 35.6423 55.9543 35.7844C55.9523 36.0635 56.059 36.3325 56.2518 36.5344C56.347 36.6313 56.4602 36.7088 56.585 36.7626C56.7167 36.8194 56.8588 36.8484 57.0022 36.8476C57.1484 36.8487 57.2935 36.8222 57.4297 36.7694C57.5582 36.719 57.6753 36.6434 57.7741 36.5469C57.8728 36.4505 57.9512 36.3353 58.0047 36.208C58.0621 36.0738 58.0911 35.9291 58.0897 35.7831C58.0912 35.6358 58.0634 35.4898 58.0077 35.3535C57.9553 35.226 57.8778 35.1104 57.7799 35.0135C57.6808 34.9179 57.5644 34.8421 57.437 34.79C57.299 34.7365 57.1519 34.7104 57.0039 34.7131ZM53.0303 34.7131C52.8899 34.7114 52.7507 34.7387 52.6213 34.7933C52.492 34.848 52.3753 34.9287 52.2786 35.0305C52.185 35.1291 52.1109 35.2444 52.0602 35.3705C52.0076 35.5024 51.9807 35.6432 51.9811 35.7852C51.9806 35.9261 52.0075 36.0658 52.0602 36.1966C52.1114 36.3228 52.1861 36.4381 52.2803 36.5365C52.3755 36.6334 52.4887 36.7109 52.6134 36.7647C52.745 36.8215 52.887 36.8505 53.0303 36.8497C53.1766 36.8509 53.3218 36.8243 53.4582 36.7715C53.6543 36.6931 53.8221 36.5571 53.9395 36.3815C54.0569 36.2059 54.1185 35.999 54.116 35.7878C54.1176 35.6405 54.0897 35.4945 54.034 35.3581C53.9821 35.2305 53.9046 35.1148 53.8062 35.0182C53.7071 34.9226 53.5908 34.8468 53.4633 34.7947C53.3256 34.7396 53.1786 34.7119 53.0303 34.7131ZM43.6654 34.4432C43.526 34.4432 43.3876 34.4663 43.2558 34.5117C43.1263 34.5559 43.0059 34.623 42.9001 34.7097C42.797 34.7957 42.7118 34.9011 42.6494 35.0199C42.5854 35.1431 42.5529 35.2801 42.5546 35.4189C42.5524 35.5603 42.5822 35.7003 42.6417 35.8286C42.698 35.9462 42.7792 36.0502 42.8797 36.1332C42.9845 36.2185 43.1044 36.2832 43.2332 36.324C43.3731 36.3686 43.5191 36.3908 43.6658 36.3899H44.07V34.4432H43.6654Z" fill="#708187"/>
<path d="M4.37354 36.7988H1.69002C1.47233 36.7994 1.25549 36.7717 1.04496 36.7163C0.851915 36.6677 0.66972 36.5832 0.50783 36.4673C0.354104 36.3556 0.227941 36.2103 0.138979 36.0424C0.0423998 35.85 -0.00518541 35.6367 0.000447845 35.4215C-0.00091838 35.232 0.040173 35.0445 0.120707 34.8729C0.200922 34.7034 0.316897 34.5532 0.460661 34.4327C0.618545 34.3036 0.799321 34.2055 0.99354 34.1433C1.21866 34.0717 1.45379 34.0365 1.69002 34.0392H2.33508V36.3921H3.96389V34.0392H4.37354V36.7988ZM1.52132 34.4459C1.38193 34.4459 1.24351 34.469 1.11167 34.5143C0.982072 34.5584 0.861455 34.6255 0.755572 34.7123C0.652397 34.7982 0.567196 34.9036 0.504855 35.0225C0.441168 35.1458 0.408634 35.2828 0.410093 35.4215C0.407739 35.5628 0.437527 35.7027 0.497206 35.8308C0.553517 35.9485 0.634708 36.0526 0.735174 36.1359C0.840152 36.2209 0.960049 36.2856 1.08873 36.3267C1.22871 36.3712 1.37486 36.3933 1.52174 36.3921H1.92586V34.4459H1.52132Z" fill="#708187"/>
<path d="M29.707 37.699H30.1277V37.2812H29.707V37.699Z" fill="#708187"/>
<path d="M28.9883 37.699H29.409V37.2812H28.9883V37.699Z" fill="#708187"/>
<path d="M32.4694 37.9154C32.357 37.915 32.2451 37.8995 32.1367 37.8696L32.2442 37.4778C32.281 37.4889 32.3185 37.4974 32.3564 37.5033C32.3887 37.5069 32.4212 37.5086 32.4537 37.5084C32.5194 37.5107 32.5848 37.4994 32.6458 37.4752C32.6953 37.4532 32.7366 37.416 32.7635 37.369C32.7961 37.309 32.817 37.2434 32.8251 37.1756C32.8379 37.0787 32.8437 36.981 32.8425 36.8833V34.0361H33.2526V36.3899H34.7782L34.0558 34.6872C34.1636 34.5907 34.2771 34.5007 34.3957 34.4177C34.5156 34.3339 34.6426 34.2607 34.7752 34.1989C34.9027 34.1391 35.0353 34.0907 35.1712 34.054C35.3017 34.019 35.4361 34.0011 35.5711 34.0009C35.7043 34.0011 35.8369 34.019 35.9655 34.054C36.1011 34.0907 36.233 34.1401 36.3594 34.2014C36.4909 34.2653 36.6177 34.3384 36.7389 34.4203C36.8601 34.5023 36.9763 34.5914 37.0869 34.6872L36.3709 36.3899H38.1131V33.1484H38.5232V36.7966H33.2526V36.8816C33.2541 37.0263 33.2412 37.1708 33.2139 37.3129C33.1928 37.4289 33.1484 37.5395 33.0835 37.638C33.0226 37.7272 32.9386 37.7983 32.8404 37.8436C32.7235 37.8945 32.5969 37.9191 32.4694 37.9154ZM35.5715 34.4483C35.3944 34.4476 35.2185 34.4786 35.0523 34.5397C34.8754 34.6076 34.7116 34.7057 34.5682 34.8295L35.2086 36.3899H35.9404L36.5803 34.8295C36.4426 34.7144 36.287 34.6225 36.1197 34.5575C35.9459 34.4862 35.7594 34.4491 35.5715 34.4483Z" fill="#708187"/>
<path d="M1.19531 33.5662H1.61601V33.1484H1.19531V33.5662Z" fill="#708187"/>
<path d="M2.93925 39.4688H2.30821L0.916525 40.9293V39.4688H0.402344V42.3732H0.916525V41.531L1.37249 41.0661L2.3711 42.3732H2.9945L1.72392 40.716L2.93925 39.4688Z" fill="#708187"/>
<path d="M3.46094 42.3732H3.97512V39.4688H3.46094V42.3732Z" fill="#708187"/>
<path d="M6.80918 41.477L5.24241 39.4688H4.76562V42.3728H5.27131V40.3067L6.88609 42.3728H7.31528V39.4688H6.80918V41.477Z" fill="#708187"/>
<path d="M9.44601 41.1917H10.1943V41.7352C9.98778 41.8811 9.74047 41.9579 9.48765 41.9549C9.35252 41.9582 9.21818 41.9333 9.09321 41.8818C8.96823 41.8303 8.85537 41.7533 8.76181 41.6558C8.66824 41.5582 8.59604 41.4422 8.54981 41.3152C8.50358 41.1882 8.48433 41.0529 8.49328 40.9181V40.9096C8.48776 40.7798 8.50794 40.6503 8.55267 40.5284C8.59739 40.4065 8.66577 40.2947 8.75388 40.1993C8.84199 40.1039 8.94808 40.0269 9.06606 39.9727C9.18404 39.9185 9.31158 39.8881 9.44133 39.8833C9.74462 39.875 10.0389 39.9868 10.2602 40.1944L10.5887 39.8102C10.2789 39.5375 9.87521 39.3961 9.463 39.4159C9.26461 39.413 9.06765 39.4498 8.88371 39.5242C8.69977 39.5986 8.53257 39.709 8.39195 39.849C8.25134 39.989 8.14015 40.1557 8.06495 40.3393C7.98974 40.5229 7.95203 40.7197 7.95403 40.9181V40.9261C7.94694 41.1262 7.98151 41.3256 8.05555 41.5116C8.12959 41.6976 8.24148 41.8662 8.38411 42.0067C8.52675 42.1472 8.69703 42.2565 8.88415 42.3277C9.07126 42.3988 9.27113 42.4304 9.47108 42.4202C9.91938 42.4199 10.3527 42.2586 10.6919 41.9656V40.7481H9.44601V41.1917Z" fill="#708187"/>
<path d="M12.4932 42.3768H11.4023V39.4723H12.4932C12.6917 39.4584 12.8909 39.4854 13.0786 39.5516C13.2662 39.6179 13.4382 39.722 13.584 39.8574C13.7298 39.9929 13.8462 40.1568 13.926 40.3391C14.0058 40.5214 14.0474 40.7181 14.048 40.9171V40.9248C14.0479 41.1242 14.0067 41.3215 13.9272 41.5044C13.8476 41.6873 13.7313 41.8519 13.5856 41.988C13.4398 42.1242 13.2676 42.2289 13.0797 42.2958C12.8918 42.3627 12.6922 42.3902 12.4932 42.3768ZM11.9169 39.9372V41.9119H12.4932C12.6255 41.9204 12.7582 41.9013 12.8827 41.8557C13.0073 41.8102 13.1209 41.7391 13.2165 41.6472C13.3121 41.5552 13.3874 41.4443 13.4377 41.3216C13.488 41.1989 13.5123 41.0671 13.5088 40.9345V40.9239C13.513 40.7907 13.4895 40.658 13.4396 40.5344C13.3896 40.4108 13.3145 40.299 13.2189 40.2061C13.1233 40.1132 13.0094 40.0413 12.8845 39.9949C12.7595 39.9485 12.6262 39.9287 12.4932 39.9368L11.9169 39.9372Z" fill="#708187"/>
<path d="M16.0526 42.4188C15.8532 42.4254 15.6545 42.3916 15.4686 42.3193C15.2827 42.247 15.1133 42.1377 14.9708 41.9982C14.8283 41.8586 14.7155 41.6916 14.6393 41.5073C14.5631 41.3229 14.525 41.125 14.5275 40.9255V40.917C14.5261 40.7211 14.5634 40.5269 14.6372 40.3454C14.711 40.1639 14.8198 39.9987 14.9575 39.8594C15.1027 39.7157 15.275 39.6023 15.4645 39.526C15.654 39.4497 15.8568 39.4119 16.0611 39.4149C16.2605 39.4083 16.4592 39.4421 16.6452 39.5144C16.8312 39.5867 17.0007 39.696 17.1433 39.8356C17.2859 39.9752 17.3987 40.1422 17.475 40.3266C17.5513 40.511 17.5894 40.709 17.587 40.9085V40.917C17.5886 41.113 17.5514 41.3073 17.4776 41.4888C17.4038 41.6703 17.2948 41.8355 17.157 41.9747C17.0116 42.1184 16.8391 42.2317 16.6495 42.3079C16.4599 42.3842 16.2569 42.4219 16.0526 42.4188ZM16.0526 39.884C15.9197 39.8836 15.7881 39.9101 15.6658 39.962C15.5434 40.0138 15.4329 40.0899 15.3407 40.1856C15.2486 40.2814 15.1768 40.3948 15.1297 40.519C15.0826 40.6433 15.0612 40.7758 15.0667 40.9085V40.917C15.0627 41.0506 15.0855 41.1835 15.1335 41.3081C15.1816 41.4327 15.2541 41.5465 15.3467 41.6428C15.4393 41.739 15.5502 41.8158 15.6729 41.8686C15.7955 41.9215 15.9275 41.9493 16.0611 41.9505C16.194 41.951 16.3257 41.9245 16.4482 41.8726C16.5706 41.8208 16.6813 41.7447 16.7735 41.6489C16.8657 41.5531 16.9375 41.4396 16.9847 41.3153C17.0318 41.191 17.0533 41.0584 17.0478 40.9255V40.917C17.0535 40.783 17.032 40.6491 16.9846 40.5236C16.9371 40.398 16.8646 40.2834 16.7716 40.1867C16.6786 40.09 16.5669 40.0131 16.4433 39.9608C16.3197 39.9085 16.1868 39.8818 16.0526 39.8823V39.884Z" fill="#708187"/>
<path d="M19.6646 40.8422L18.7739 39.4688H18.2266V42.3732H18.7322V40.2987L19.6476 41.6585H19.6641L20.5875 40.2902V42.3724H21.1017V39.4688H20.5544L19.6646 40.8422Z" fill="#708187"/>
<path d="M24.5057 42.4188C24.3063 42.4254 24.1077 42.3916 23.9217 42.3193C23.7358 42.247 23.5665 42.1377 23.4239 41.9982C23.2814 41.8586 23.1686 41.6916 23.0924 41.5073C23.0162 41.3229 22.9782 41.125 22.9806 40.9255V40.917C22.9792 40.7211 23.0165 40.5269 23.0903 40.3454C23.1641 40.1639 23.2729 39.9987 23.4106 39.8594C23.5558 39.7157 23.7282 39.6023 23.9177 39.526C24.1071 39.4497 24.3099 39.4119 24.5142 39.4149C24.7136 39.4083 24.9124 39.4421 25.0984 39.5144C25.2844 39.5867 25.4538 39.696 25.5964 39.8356C25.739 39.9752 25.8519 40.1422 25.9281 40.3266C26.0044 40.511 26.0425 40.709 26.0402 40.9085V40.917C26.0417 41.113 26.0045 41.3073 25.9307 41.4888C25.8569 41.6703 25.7479 41.8355 25.6101 41.9747C25.4648 42.1184 25.2922 42.2317 25.1026 42.3079C24.913 42.3842 24.7101 42.4219 24.5057 42.4188ZM24.5057 39.884C24.3728 39.8836 24.2413 39.9101 24.1189 39.962C23.9966 40.0138 23.886 40.0899 23.7939 40.1856C23.7017 40.2814 23.63 40.3948 23.5829 40.519C23.5358 40.6433 23.5143 40.7758 23.5198 40.9085V40.917C23.5159 41.0506 23.5386 41.1835 23.5867 41.3081C23.6347 41.4327 23.7072 41.5465 23.7998 41.6428C23.8924 41.739 24.0033 41.8158 24.126 41.8686C24.2487 41.9215 24.3806 41.9493 24.5142 41.9505C24.6472 41.951 24.7788 41.9245 24.9013 41.8726C25.0237 41.8208 25.1344 41.7447 25.2266 41.6489C25.3188 41.5531 25.3907 41.4396 25.4378 41.3153C25.485 41.191 25.5064 41.0584 25.5009 40.9255V40.917C25.5067 40.783 25.4851 40.6491 25.4377 40.5236C25.3902 40.398 25.3178 40.2834 25.2247 40.1867C25.1317 40.09 25.02 40.0131 24.8964 39.9608C24.7728 39.9085 24.6399 39.8818 24.5057 39.8823V39.884Z" fill="#708187"/>
<path d="M26.6797 42.3732H27.1939V41.1906H28.6693V40.7262H27.1939V39.9336H28.8571V39.4688H26.6797V42.3732Z" fill="#708187"/>
<path d="M31.8015 40.6896C31.2415 40.5571 31.1076 40.4572 31.1076 40.2332V40.2252C31.1076 40.0339 31.2831 39.8805 31.584 39.8805C31.874 39.8907 32.1528 39.9951 32.3782 40.178L32.654 39.7934C32.3546 39.5498 31.9784 39.4205 31.5925 39.4284C31.4708 39.4136 31.3474 39.424 31.2299 39.459C31.1124 39.494 31.0034 39.5529 30.9097 39.6318C30.816 39.7108 30.7395 39.8083 30.6851 39.9181C30.6307 40.0279 30.5995 40.1478 30.5934 40.2702V40.2783C30.5934 40.8137 30.9444 40.9964 31.5674 41.1456C32.1109 41.2701 32.2278 41.3823 32.2278 41.5901V41.5982C32.2278 41.8183 32.0268 41.9636 31.7097 41.9636C31.3648 41.9601 31.0343 41.8248 30.7859 41.5854L30.4766 41.9509C30.8114 42.2522 31.2465 42.418 31.697 42.4158C32.3115 42.4158 32.7419 42.0919 32.7419 41.5484V41.5399C32.7419 41.0589 32.4198 40.8392 31.8015 40.6901" fill="#708187"/>
<path d="M33.5582 42.3706H33.0312L34.3184 39.4453H34.7948L36.0819 42.3698H35.5384L35.241 41.6686H33.8586L33.5582 42.3706ZM34.5483 40.0555L34.0469 41.2173H35.0544L34.5483 40.0555Z" fill="#708187"/>
<path d="M38.3726 41.1413C38.3726 41.6763 38.0926 41.9487 37.637 41.9487C37.1815 41.9487 36.8972 41.6598 36.8972 41.1205V39.4688H36.383V41.1413C36.3628 41.3112 36.3809 41.4834 36.4359 41.6454C36.4908 41.8074 36.5813 41.9551 36.7007 42.0776C36.8201 42.2001 36.9654 42.2943 37.1259 42.3534C37.2865 42.4125 37.4582 42.435 37.6285 42.4191C37.8015 42.4345 37.9757 42.4109 38.1384 42.3502C38.3011 42.2894 38.4482 42.1931 38.5688 42.0682C38.6894 41.9433 38.7806 41.7929 38.8356 41.6282C38.8906 41.4635 38.9081 41.2886 38.8868 41.1163V39.4688H38.3726V41.1413Z" fill="#708187"/>
<path d="M40.7315 42.3768H39.6406V39.4723H40.7315C40.9299 39.4584 41.1292 39.4854 41.3168 39.5517C41.5044 39.6179 41.6764 39.722 41.8221 39.8574C41.9679 39.9929 42.0843 40.1569 42.164 40.3391C42.2438 40.5214 42.2853 40.7181 42.2859 40.9171V40.9248C42.2857 41.1242 42.2446 41.3214 42.165 41.5043C42.0855 41.6872 41.9693 41.8518 41.8236 41.9879C41.6778 42.124 41.5057 42.2288 41.3179 42.2957C41.13 42.3626 40.9304 42.3902 40.7315 42.3768ZM40.1552 39.9372V41.9119H40.7315C40.8638 41.9205 40.9965 41.9013 41.121 41.8557C41.2455 41.8102 41.3592 41.7391 41.4548 41.6472C41.5503 41.5552 41.6257 41.4443 41.676 41.3216C41.7263 41.1989 41.7505 41.0671 41.7471 40.9345V40.9239C41.7513 40.7907 41.7278 40.658 41.6778 40.5344C41.6279 40.4108 41.5528 40.299 41.4572 40.2061C41.3616 40.1132 41.2477 40.0413 41.1227 39.9949C40.9978 39.9485 40.8645 39.9287 40.7315 39.9368L40.1552 39.9372Z" fill="#708187"/>
<path d="M42.9375 42.3732H43.4517V39.4688H42.9375V42.3732Z" fill="#708187"/>
<path d="M45.7652 42.3706H45.2383L46.5254 39.4453H47.0018L48.2889 42.3698H47.7454L47.448 41.6686H46.0656L45.7652 42.3706ZM46.7553 40.0555L46.2539 41.2173H47.2614L46.7553 40.0555Z" fill="#708187"/>
<path d="M49.2876 42.3755H48.7734V39.4706H50.0772C50.3858 39.4535 50.689 39.5576 50.9219 39.7608C51.0016 39.8441 51.0639 39.9423 51.1055 40.0498C51.1471 40.1573 51.167 40.272 51.1642 40.3872V40.3957C51.1701 40.6011 51.1033 40.802 50.9756 40.963C50.8478 41.124 50.6674 41.2348 50.466 41.2757L51.2555 42.3742H50.65L49.931 41.362H49.2876V42.3755ZM49.2876 39.9355V40.9103H50.0398C50.4056 40.9103 50.6419 40.7199 50.6419 40.425V40.4165C50.6419 40.1105 50.4209 39.9355 50.0359 39.9355H49.2876Z" fill="#708187"/>
<path d="M52.1636 42.3706H51.6367L52.9239 39.4453H53.4007L54.6874 42.3698H54.1439L53.8464 41.6686H52.4641L52.1636 42.3706ZM53.1538 40.0555L52.6523 41.2173H53.6599L53.1538 40.0555Z" fill="#708187"/>
<path d="M56.5262 42.3755H55.1719V39.471H56.4845C56.7634 39.4529 57.0383 39.5454 57.2494 39.7285C57.3136 39.7908 57.3641 39.8657 57.3979 39.9485C57.4317 40.0313 57.448 40.1201 57.4457 40.2095V40.218C57.4487 40.3553 57.4105 40.4903 57.336 40.6056C57.2614 40.7209 57.154 40.8112 57.0276 40.8648C57.1919 40.8955 57.3401 40.9831 57.4463 41.1121C57.5525 41.2412 57.61 41.4035 57.6085 41.5706V41.5787C57.6085 42.0776 57.204 42.3755 56.5262 42.3755ZM55.6776 41.1283V41.9233H56.5317C56.8903 41.9233 57.096 41.778 57.096 41.5247V41.5162C57.096 41.2613 56.8878 41.1261 56.4943 41.1261L55.6776 41.1283ZM55.6776 39.9253V40.6948H56.3796C56.7301 40.6948 56.932 40.5512 56.932 40.3009V40.2924C56.932 40.0612 56.7395 39.9236 56.4174 39.9236L55.6776 39.9253Z" fill="#708187"/>
<path d="M58.2461 42.3732H58.7603V39.4688H58.2461V42.3732Z" fill="#708187"/>
<path d="M59.7769 42.3706H59.25L60.5372 39.4453H61.0135L62.3011 42.3698H61.7572L61.4597 41.6686H60.0774L59.7769 42.3706ZM60.767 40.0555L60.2656 41.2173H61.2732L60.767 40.0555Z" fill="#708187"/>
<path d="M21.9765 11.6484L22.8031 12.4359L22.0097 13.256L21.1836 12.4686L21.9765 11.6484Z" fill="#273777"/>
<path d="M23.8672 12.4686L24.6933 13.256L25.4862 12.4359L24.6601 11.6484L23.8672 12.4686Z" fill="#A9AAAC"/>
<path d="M22.7031 13.4968L23.3469 14.1108L23.9639 13.4734L23.3206 12.8594L22.7031 13.4968Z" fill="#CCD433"/>
<path d="M25.0625 13.8484L25.7059 14.4628L26.3229 13.8254L25.6795 13.2109L25.0625 13.8484Z" fill="#71B545"/>
<path d="M21.6523 14.4734L22.2957 15.0878L22.9127 14.4504L22.2702 13.8359L21.6523 14.4734Z" fill="#CCD433"/>
<path d="M23.8086 14.5515L24.4515 15.1659L25.069 14.5285L24.4256 13.9141L23.8086 14.5515Z" fill="#26B3BA"/>
<path d="M22.9648 15.2855L23.4174 15.7168L23.8517 15.2673L23.3991 14.8359L22.9648 15.2855Z" fill="#71B545"/>
<path d="M24.6719 15.621L25.1244 16.0524L25.5592 15.6028L25.1066 15.1719L24.6719 15.621Z" fill="#59B15A"/>
<path d="M28.4023 12.2081L28.6573 13.6023L30.0596 13.3474L29.8047 11.9531L28.4023 12.2081Z" fill="#2785C6"/>
<path d="M26.5703 12.7908L26.7764 13.9092L27.9029 13.7044L27.6968 12.5859L26.5703 12.7908Z" fill="#1D3A6C"/>
<path d="M28.7461 14.3528L28.9522 15.4713L30.0783 15.2665L29.8726 14.1484L28.7461 14.3528Z" fill="#26B3BA"/>
<path d="M27.1953 14.5109L27.3555 15.3816L28.233 15.2223L28.072 14.3516L27.1953 14.5109Z" fill="#CCD433"/>
<path d="M28.8984 16.1672L29.0586 17.0379L29.9361 16.8785L29.7751 16.0078L28.8984 16.1672Z" fill="#A9AAAC"/>
<path d="M25.8789 14.8703L26.0391 15.741L26.9166 15.5821L26.756 14.7109L25.8789 14.8703Z" fill="#26B3BA"/>
<path d="M27.4727 16.0031L27.6329 16.8738L28.5104 16.7149L28.3493 15.8438L27.4727 16.0031Z" fill="#71B545"/>
<path d="M26.3555 16.1122L26.4685 16.725L27.0855 16.6128L26.9725 16L26.3555 16.1122Z" fill="#A9AAAC"/>
<path d="M27.5391 17.3778L27.6517 17.9902L28.2687 17.878L28.1557 17.2656L27.5391 17.3778Z" fill="#59B15A"/>
<path d="M32.5785 16.7734L31.9648 18.0534L33.2541 18.6619L33.8673 17.3824L32.5785 16.7734Z" fill="#273777"/>
<path d="M30.746 16.1797L30.2539 17.2063L31.2878 17.6946L31.7799 16.6679L30.746 16.1797Z" fill="#26B3BA"/>
<path d="M31.5936 18.7109L31.1016 19.738L32.1359 20.2259L32.628 19.1992L31.5936 18.7109Z" fill="#71B545"/>
<path d="M30.2379 17.9375L29.8555 18.7372L30.6629 19.1176L31.0453 18.3178L30.2379 17.9375Z" fill="#CCD433"/>
<path d="M30.6481 20.2734L30.2656 21.0728L31.0709 21.4531L31.4555 20.6538L30.6481 20.2734Z" fill="#CCD433"/>
<path d="M28.9645 17.4609L28.582 18.2607L29.3894 18.6406L29.7719 17.8413L28.9645 17.4609Z" fill="#2785C6"/>
<path d="M29.5817 19.3125L29.1992 20.1118L30.0045 20.4921L30.3891 19.6928L29.5817 19.3125Z" fill="#A9AAAC"/>
<path d="M28.6136 18.75L28.3438 19.3126L28.9102 19.5799L29.18 19.0177L28.6136 18.75Z" fill="#71B545"/>
<path d="M28.8276 20.4688L28.5586 21.0314L29.1246 21.2987L29.3945 20.7365L28.8276 20.4688Z" fill="#26B3BA"/>
<path d="M33.271 22.8984L32.0195 23.5783L32.7058 24.8226L33.9577 24.1427L33.271 22.8984Z" fill="#2785C6"/>
<path d="M32.1365 21.3594L31.1328 21.9063L31.6852 22.9028L32.6873 22.3559L32.1365 21.3594Z" fill="#26B3BA"/>
<path d="M31.3323 23.8984L30.3281 24.4453L30.8806 25.4423L31.883 24.8954L31.3323 23.8984Z" fill="#26B3BA"/>
<path d="M30.6877 22.4922L29.9062 22.9171L30.335 23.6939L31.1173 23.269L30.6877 22.4922Z" fill="#273777"/>
<path d="M29.6452 24.6172L28.8633 25.0421L29.292 25.8189L30.0739 25.394L29.6452 24.6172Z" fill="#59B15A"/>
<path d="M29.9342 21.3672L29.1523 21.7921L29.5811 22.5694L30.3634 22.1444L29.9342 21.3672Z" fill="#1D3A6C"/>
<path d="M29.3444 23.2266L28.5625 23.6515L28.9913 24.4283L29.7732 24.0034L29.3444 23.2266Z" fill="#CCD433"/>
<path d="M28.8941 22.2031L28.3438 22.5006L28.6455 23.0488L29.1936 22.7492L28.8941 22.2031Z" fill="#A9AAAC"/>
<path d="M28.0581 23.7188L27.5078 24.0183L27.8091 24.5644L28.3577 24.2648L28.0581 23.7188Z" fill="#26B3BA"/>
<path d="M30.2251 28.2758L28.8079 28.1016L28.6328 29.5081L30.0496 29.6824L30.2251 28.2758Z" fill="#71B545"/>
<path d="M30.211 26.3668L29.0742 26.2266L28.9336 27.3548L30.0699 27.4946L30.211 26.3668Z" fill="#1D3A6C"/>
<path d="M28.0625 27.9605L26.9262 27.8203L26.7852 28.9485L27.9219 29.0888L28.0625 27.9605Z" fill="#26B3BA"/>
<path d="M28.3694 26.4369L27.4846 26.3281L27.375 27.2069L28.2597 27.3157L28.3694 26.4369Z" fill="#71B545"/>
<path d="M26.2682 27.5619L25.3835 27.4531L25.2734 28.3319L26.1586 28.4407L26.2682 27.5619Z" fill="#A9AAAC"/>
<path d="M28.4241 25.0858L27.5389 24.9766L27.4297 25.8553L28.3144 25.9641L28.4241 25.0858Z" fill="#A9AAAC"/>
<path d="M26.8498 26.2576L25.9647 26.1484L25.8555 27.0272L26.7402 27.136L26.8498 26.2576Z" fill="#71B545"/>
<path d="M27.0823 25.1624L26.4597 25.0859L26.3828 25.7038L27.0049 25.7803L27.0823 25.1624Z" fill="#A9AAAC"/>
<path d="M25.512 25.9046L24.8894 25.8281L24.8125 26.446L25.435 26.5225L25.512 25.9046Z" fill="#A9AAAC"/>
<path d="M24.5836 30.8631L23.5374 29.8984L22.5664 30.937L23.6126 31.9012L24.5836 30.8631Z" fill="#CCD433"/>
<path d="M24.3922 11.0115L23.346 10.0469L22.375 11.0854L23.4212 12.0496L24.3922 11.0115Z" fill="#71B545"/>
<path d="M25.7002 29.3046L24.861 28.5312L24.082 29.3646L24.9213 30.1375L25.7002 29.3046Z" fill="#26B3BA"/>
<path d="M23.0175 29.3515L22.1774 28.5781L21.3984 29.4114L22.2377 30.1844L23.0175 29.3515Z" fill="#71B545"/>
<path d="M24.1623 28.2975L23.5087 27.6953L22.9023 28.3438L23.5555 28.9459L24.1623 28.2975Z" fill="#2785C6"/>
<path d="M21.799 27.985L21.1459 27.3828L20.5391 28.0313L21.193 28.6338L21.799 27.985Z" fill="#CCD433"/>
<path d="M25.0021 27.235L24.3486 26.6328L23.7422 27.2813L24.3953 27.8834L25.0021 27.235Z" fill="#CCD433"/>
<path d="M23.0373 27.2662L22.3837 26.6641L21.7773 27.3125L22.4305 27.9151L23.0373 27.2662Z" fill="#A9AAAC"/>
<path d="M23.8708 26.5187L23.4093 26.0938L22.9844 26.5501L23.4442 26.9751L23.8708 26.5187Z" fill="#1D3A6C"/>
<path d="M22.1599 26.2062L21.6984 25.7812L21.2734 26.2372L21.7328 26.6622L22.1599 26.2062Z" fill="#A9AAAC"/>
<path d="M18.4884 29.6864L18.2088 28.2969L16.8086 28.5748L17.0891 29.9644L18.4884 29.6864Z" fill="#2785C6"/>
<path d="M20.3084 29.0682L20.0836 27.9531L18.9609 28.1766L19.1857 29.2913L20.3084 29.0682Z" fill="#26B3BA"/>
<path d="M18.1053 27.5447L17.8805 26.4297L16.7578 26.6532L16.9826 27.7678L18.1053 27.5447Z" fill="#71B545"/>
<path d="M19.659 27.3603L19.4839 26.4922L18.6094 26.6656L18.7849 27.5337L19.659 27.3603Z" fill="#CCD433"/>
<path d="M20.9637 26.9853L20.7886 26.1172L19.9141 26.2906L20.0896 27.1591L20.9637 26.9853Z" fill="#273777"/>
<path d="M19.3539 25.8682L19.1788 25L18.3047 25.1738L18.4793 26.042L19.3539 25.8682Z" fill="#2785C6"/>
<path d="M20.4682 25.7435L20.3454 25.1328L19.7305 25.2548L19.8533 25.8654L20.4682 25.7435Z" fill="#71B545"/>
<path d="M19.265 24.5013L19.1422 23.8906L18.5273 24.0126L18.6502 24.6232L19.265 24.5013Z" fill="#A9AAAC"/>
<path d="M14.237 25.1895L14.8285 23.9002L13.529 23.3125L12.9375 24.6018L14.237 25.1895Z" fill="#26B3BA"/>
<path d="M16.0775 25.7478L16.5522 24.7134L15.5102 24.2422L15.0352 25.2765L16.0775 25.7478Z" fill="#CCD433"/>
<path d="M15.1865 23.2326L15.6616 22.1982L14.6192 21.7266L14.1445 22.7617L15.1865 23.2326Z" fill="#2785C6"/>
<path d="M16.5573 23.9775L16.9266 23.1701L16.1158 22.8047L15.7461 23.6121L16.5573 23.9775Z" fill="#26B3BA"/>
<path d="M17.6398 25.9927L18.0095 25.1853L17.1983 24.8203L16.8281 25.6277L17.6398 25.9927Z" fill="#A9AAAC"/>
<path d="M16.1085 21.6572L16.4778 20.8498L15.667 20.4844L15.2969 21.2918L16.1085 21.6572Z" fill="#273777"/>
<path d="M17.839 24.4385L18.2083 23.6311L17.3975 23.2656L17.0273 24.073L17.839 24.4385Z" fill="#59B15A"/>
<path d="M17.1862 22.5947L17.5559 21.7873L16.7447 21.4219L16.375 22.2293L17.1862 22.5947Z" fill="#CCD433"/>
<path d="M18.1649 23.1456L18.4249 22.5787L17.8538 22.3203L17.5938 22.8872L18.1649 23.1456Z" fill="#1D3A6C"/>
<path d="M17.9227 21.4346L18.1828 20.8677L17.6116 20.6094L17.3516 21.1762L17.9227 21.4346Z" fill="#71B545"/>
<path d="M13.4376 19.0737L14.678 18.373L13.9705 17.1406L12.7305 17.8426L13.4376 19.0737Z" fill="#26B3BA"/>
<path d="M14.6025 20.5975L15.5972 20.0344L15.0295 19.0469L14.0352 19.6103L14.6025 20.5975Z" fill="#71B545"/>
<path d="M15.3603 18.0354L16.3551 17.4724L15.7873 16.4844L14.793 17.0478L15.3603 18.0354Z" fill="#1D3A6C"/>
<path d="M16.0318 19.4421L16.806 19.0031L16.3645 18.2344L15.5898 18.6729L16.0318 19.4421Z" fill="#2785C6"/>
<path d="M17.0396 17.2936L17.8138 16.8547L17.3723 16.0859L16.5977 16.5245L17.0396 17.2936Z" fill="#71B545"/>
<path d="M16.8009 20.5514L17.5756 20.1129L17.134 19.3438L16.3594 19.7823L16.8009 20.5514Z" fill="#26B3BA"/>
<path d="M17.3595 18.6843L18.1342 18.2457L17.6926 17.4766L16.918 17.9151L17.3595 18.6843Z" fill="#CCD433"/>
<path d="M17.8302 19.6936L18.3749 19.3851L18.0643 18.8438L17.5195 19.1518L17.8302 19.6936Z" fill="#A9AAAC"/>
<path d="M18.6431 18.1702L19.1883 17.8617L18.8772 17.3203L18.332 17.6288L18.6431 18.1702Z" fill="#71B545"/>
<path d="M16.3984 13.6513L17.8177 13.8022L17.9707 12.393L16.5506 12.2422L16.3984 13.6513Z" fill="#71B545"/>
<path d="M16.4414 15.56L17.5803 15.6811L17.7018 14.5508L16.5629 14.4297L16.4414 15.56Z" fill="#A9AAAC"/>
<path d="M18.5664 13.9272L19.7053 14.0483L19.8268 12.918L18.6879 12.7969L18.5664 13.9272Z" fill="#26B3BA"/>
<path d="M18.2812 15.4504L19.1681 15.5447L19.2629 14.6646L18.3764 14.5703L18.2812 15.4504Z" fill="#CCD433"/>
<path d="M20.3633 14.2945L21.2497 14.3889L21.3445 13.5088L20.458 13.4141L20.3633 14.2945Z" fill="#2785C6"/>
<path d="M18.25 16.8019L19.1364 16.8963L19.2316 16.0158L18.3452 15.9219L18.25 16.8019Z" fill="#26B3BA"/>
<path d="M19.8047 15.6144L20.6911 15.7088L20.7863 14.8283L19.8999 14.7344L19.8047 15.6144Z" fill="#71B545"/>
<path d="M19.5898 16.7051L20.2132 16.7714L20.2804 16.1527L19.6566 16.0859L19.5898 16.7051Z" fill="#1D3A6C"/>
<path d="M21.1484 15.9395L21.7727 16.0053L21.839 15.3866L21.2152 15.3203L21.1484 15.9395Z" fill="#A9AAAC"/>
<path d="M27.8846 21.8441C27.705 21.7434 27.5153 21.6618 27.3186 21.6006C26.8155 21.4423 26.2824 21.4036 25.7616 21.4876C25.5321 21.5244 25.3065 21.5823 25.0877 21.6605L25.0205 21.6843C24.8989 21.7308 24.7797 21.7835 24.6636 21.8424C24.562 21.8938 24.4605 21.9499 24.3593 22.0103C24.1241 22.1516 23.8971 22.3063 23.6794 22.4735C23.5054 21.2807 23.482 20.0707 23.6097 18.8721C23.6098 18.8711 23.6101 18.8702 23.6107 18.8694C23.6113 18.8687 23.612 18.8681 23.6129 18.8677C23.6138 18.8674 23.6148 18.8673 23.6157 18.8674C23.6166 18.8676 23.6175 18.868 23.6182 18.8687C24.1562 19.2052 24.0053 20.1456 23.8923 20.4146C23.8902 20.4201 23.8983 20.4235 23.9021 20.4193C24.1239 20.1649 24.2626 19.8488 24.2993 19.5133C24.3361 19.1778 24.2692 18.8391 24.1078 18.5427C24.1048 18.5376 24.1116 18.533 24.1163 18.5364C24.2062 18.6089 24.2876 18.6915 24.3589 18.7824C24.5379 19.0123 24.6439 19.2906 24.6632 19.5813C24.6723 19.7015 24.6723 19.8223 24.6632 19.9425C24.6632 19.9705 24.6589 19.9973 24.6568 20.0224C24.6568 20.0266 24.6598 20.0275 24.6632 20.0266C24.6666 20.0258 24.6666 20.0266 24.6666 20.0266C24.7789 19.8087 24.8373 19.567 24.8368 19.3218C24.8364 19.0766 24.7771 18.8351 24.664 18.6175C24.5834 18.4654 24.4809 18.326 24.3597 18.2036C24.3219 18.165 24.282 18.1263 24.2386 18.0889C24.2374 18.0883 24.2364 18.0873 24.236 18.086C24.2355 18.0847 24.2355 18.0833 24.2361 18.0821C24.2367 18.0809 24.2377 18.0799 24.239 18.0794C24.2402 18.0789 24.2416 18.079 24.2429 18.0795C24.2824 18.089 24.3214 18.1005 24.3597 18.114C24.4686 18.1513 24.5712 18.2049 24.664 18.2729C24.8573 18.4177 25.0048 18.6151 25.0889 18.8415C25.1538 19.0069 25.1873 19.183 25.1875 19.3607C25.1875 19.3622 25.1881 19.3635 25.1891 19.3645C25.1901 19.3655 25.1914 19.3661 25.1928 19.3661C25.1943 19.3661 25.1956 19.3655 25.1966 19.3645C25.1976 19.3635 25.1982 19.3622 25.1982 19.3607C25.257 19.1862 25.2778 19.001 25.259 18.8178C25.2402 18.6345 25.1824 18.4574 25.0894 18.2984C24.9821 18.1307 24.8365 17.991 24.6644 17.8909C24.569 17.8334 24.4668 17.7881 24.3602 17.7557C24.3126 17.7408 24.2638 17.73 24.2144 17.7234C24.2085 17.7234 24.2097 17.7141 24.2144 17.7128C24.2646 17.7083 24.3127 17.7057 24.3589 17.7052C24.4609 17.703 24.5628 17.7113 24.6632 17.7298C24.8149 17.7556 24.9596 17.8127 25.0881 17.8972C25.2057 17.974 25.3033 18.0778 25.3728 18.1998C25.3754 18.2049 25.3834 18.1998 25.3826 18.196C25.3626 17.9753 25.2573 17.7711 25.0889 17.627C24.9654 17.5226 24.8203 17.4468 24.664 17.4052C24.5648 17.3783 24.4626 17.364 24.3597 17.3627C24.2299 17.3594 24.1006 17.3824 23.9798 17.4302C23.9756 17.4324 23.9709 17.4268 23.9739 17.4222C24.0684 17.2907 24.2045 17.1951 24.3602 17.1506C24.4587 17.1208 24.5617 17.1086 24.6644 17.1145C24.7505 17.118 24.8351 17.1378 24.9139 17.1727C24.915 17.1735 24.9164 17.1738 24.9177 17.1736C24.9191 17.1733 24.9203 17.1726 24.9211 17.1714C24.9219 17.1703 24.9222 17.1689 24.922 17.1676C24.9217 17.1662 24.9209 17.165 24.9198 17.1642C24.8474 17.0814 24.7611 17.0118 24.6649 16.9585C24.5709 16.9059 24.4675 16.8723 24.3606 16.8595C24.2168 16.8444 24.0717 16.8702 23.942 16.9342C23.8124 16.9981 23.7035 17.0975 23.628 17.2207C23.6275 17.2214 23.6268 17.222 23.626 17.2224C23.6253 17.2228 23.6244 17.223 23.6235 17.223C23.6227 17.223 23.6218 17.2228 23.621 17.2224C23.6203 17.222 23.6196 17.2214 23.6191 17.2207C23.5838 17.1578 23.5498 17.0886 23.5179 17.0155C23.4411 16.8394 23.3854 16.6548 23.3522 16.4656C23.3522 16.4644 23.3517 16.4632 23.3508 16.4623C23.35 16.4614 23.3488 16.4609 23.3475 16.4609C23.3463 16.4609 23.3451 16.4614 23.3442 16.4623C23.3434 16.4632 23.3429 16.4644 23.3429 16.4656C23.3093 16.6557 23.2532 16.8412 23.1759 17.018C23.1459 17.0873 23.1124 17.1549 23.0756 17.2207C23.0751 17.2215 23.0745 17.2222 23.0737 17.2227C23.0729 17.2231 23.072 17.2234 23.0711 17.2234C23.0702 17.2234 23.0693 17.2231 23.0685 17.2227C23.0677 17.2222 23.0671 17.2215 23.0666 17.2207C22.9989 17.1132 22.9061 17.0236 22.7961 16.9598C22.6862 16.8959 22.5624 16.8596 22.4354 16.854C22.3084 16.8484 22.1819 16.8737 22.0668 16.9276C21.9517 16.9816 21.8514 17.0626 21.7744 17.1638C21.7733 17.1646 21.7725 17.1658 21.7723 17.1671C21.772 17.1685 21.7723 17.1699 21.7731 17.171C21.7739 17.1721 21.7751 17.1729 21.7765 17.1732C21.7778 17.1734 21.7792 17.1731 21.7803 17.1723C21.9426 17.1053 22.1224 17.0933 22.2921 17.1383C22.4618 17.1833 22.6121 17.2827 22.7199 17.4213L22.7212 17.4228L22.7218 17.4247L22.7217 17.4267L22.7207 17.4285L22.7192 17.4298L22.7173 17.4305L22.7153 17.4303L22.7135 17.4294C22.5055 17.3547 22.2802 17.3431 22.0656 17.3961C21.8511 17.449 21.6569 17.564 21.5075 17.7268C21.3937 17.859 21.3237 18.0232 21.307 18.1968C21.307 18.2028 21.3142 18.2058 21.3172 18.2007C21.3654 18.114 21.4287 18.0368 21.5041 17.9725C21.6388 17.8638 21.7948 17.7846 21.9619 17.74C22.1291 17.6955 22.3038 17.6865 22.4747 17.7137C22.4806 17.7137 22.4823 17.7234 22.4747 17.7243C22.2605 17.7605 22.059 17.8504 21.889 17.9856C21.7191 18.1209 21.5862 18.2971 21.5029 18.4977C21.4065 18.777 21.4024 19.0799 21.4914 19.3616C21.4914 19.363 21.4919 19.3642 21.4929 19.3652C21.4938 19.3662 21.4951 19.3667 21.4965 19.3667C21.4978 19.3667 21.4991 19.3662 21.5001 19.3652C21.501 19.3642 21.5016 19.363 21.5016 19.3616C21.5016 19.3539 21.5016 19.3455 21.5016 19.3378C21.4967 19.0525 21.5872 18.7738 21.7588 18.5458C21.9304 18.3179 22.1733 18.1537 22.4488 18.0795C22.4499 18.0794 22.4511 18.0796 22.4521 18.0801C22.4531 18.0807 22.4539 18.0815 22.4545 18.0825C22.455 18.0836 22.4552 18.0847 22.455 18.0859C22.4548 18.087 22.4543 18.0881 22.4535 18.0889C22.1688 18.3117 21.9704 18.6264 21.892 18.9793C21.8137 19.3322 21.8603 19.7013 22.0238 20.0237C22.0243 20.0248 22.0252 20.0257 22.0263 20.0263C22.0274 20.0268 22.0286 20.0269 22.0298 20.0266C22.031 20.0263 22.0321 20.0256 22.0328 20.0246C22.0334 20.0236 22.0338 20.0223 22.0336 20.0211C21.9854 19.7476 22.0099 19.4662 22.1048 19.2051C22.1997 18.9441 22.3615 18.7125 22.5741 18.5338C22.5788 18.5304 22.5856 18.5338 22.5826 18.5402C22.4211 18.8366 22.3541 19.1753 22.3908 19.5109C22.4275 19.8464 22.5661 20.1627 22.7879 20.4172C22.7917 20.4214 22.7998 20.4172 22.7977 20.4125C22.685 20.1435 22.5346 19.2031 23.0717 18.8665C23.0725 18.8659 23.0733 18.8655 23.0743 18.8653C23.0752 18.8651 23.0762 18.8652 23.0771 18.8656C23.0779 18.8659 23.0787 18.8665 23.0793 18.8673C23.0798 18.8681 23.0802 18.869 23.0802 18.8699C23.2083 20.0686 23.1849 21.2786 23.0106 22.4713C22.6034 22.1464 22.1523 21.8807 21.6707 21.6822C21.6146 21.6614 21.5598 21.6427 21.5058 21.6253C21.0981 21.4898 20.6692 21.4292 20.2399 21.4464C19.7863 21.4645 19.3414 21.5765 18.9332 21.7753C18.8827 21.8003 18.8397 21.8237 18.8057 21.8428C18.8034 21.8446 18.8018 21.8471 18.8011 21.8499C18.8005 21.8528 18.8008 21.8557 18.802 21.8584C18.8032 21.861 18.8053 21.8631 18.808 21.8644C18.8106 21.8657 18.8135 21.866 18.8164 21.8654C18.8555 21.853 18.8941 21.8424 18.9324 21.8318C19.3566 21.7103 19.7994 21.6671 20.2391 21.7043C20.6772 21.7456 21.1051 21.8606 21.505 22.0443C22.0489 22.3009 22.5557 22.6296 23.0118 23.0216C22.5359 23.4777 22.033 23.9049 21.5058 24.3007C21.4893 24.3101 21.4731 24.3194 21.4578 24.3271C21.4182 24.2726 21.3639 24.2307 21.3012 24.2061C21.2385 24.1815 21.1702 24.1754 21.1041 24.1884C21.0381 24.2013 20.9771 24.2329 20.9284 24.2794C20.8797 24.3259 20.8454 24.3853 20.8293 24.4507C20.8157 24.5029 20.8147 24.5577 20.8266 24.6103C20.8386 24.663 20.8629 24.712 20.8977 24.7533C20.9757 24.832 21.0772 24.8831 21.1868 24.899C21.2965 24.9148 21.4083 24.8946 21.5054 24.8412C21.9473 24.6564 22.4976 24.0763 23.1733 23.4597C23.2294 23.4083 23.2868 23.3569 23.3433 23.3055C23.3999 23.3565 23.4566 23.4076 23.5133 23.4589C23.8196 23.7372 24.1001 24.0092 24.3559 24.2404C24.4617 24.3356 24.5629 24.4239 24.6602 24.503C24.7921 24.6139 24.9344 24.7118 25.0851 24.7953C25.1834 24.8676 25.3027 24.9053 25.4246 24.9026C25.5465 24.8999 25.6641 24.857 25.7591 24.7805C25.7697 24.7715 25.7799 24.763 25.7901 24.7529C25.8218 24.7099 25.8442 24.6608 25.8561 24.6087C25.8679 24.5567 25.8689 24.5027 25.8589 24.4503C25.8432 24.385 25.8084 24.3259 25.7591 24.2803C25.7146 24.2368 25.6593 24.206 25.5989 24.1911C25.5315 24.1757 25.4612 24.1804 25.3965 24.2046C25.3317 24.2288 25.2755 24.2713 25.2347 24.3271C25.1841 24.3004 25.1354 24.2703 25.0889 24.237C24.9412 24.1315 24.7993 24.018 24.664 23.897C24.5684 23.812 24.4668 23.7228 24.3597 23.6259C24.1511 23.4377 23.9225 23.229 23.6798 23.0182C23.8977 22.8368 24.1246 22.6666 24.3597 22.5083C24.4592 22.4417 24.5606 22.3774 24.664 22.3154C24.8017 22.2341 24.9433 22.1587 25.0889 22.0893C25.3061 21.9857 25.5316 21.9004 25.7629 21.8343C26.2685 21.6881 26.8002 21.6553 27.3199 21.7383C27.5078 21.768 27.6933 21.8113 27.8749 21.8679C27.8777 21.8687 27.8808 21.8685 27.8835 21.8673C27.8863 21.8661 27.8885 21.8639 27.8898 21.8613C27.8911 21.8586 27.8914 21.8555 27.8907 21.8526C27.89 21.8497 27.8883 21.8472 27.8859 21.8454" fill="#6F777E"/>
</g>
</g>
<defs>
<clipPath id="clip0_2605_14895">
<rect width="63.6403" height="42.3477" fill="white" transform="translate(0 0.078125)"/>
</clipPath>
</defs>
</svg>
