<svg id="visual" viewBox="0 0 900 450" width="900" height="450" xmlns="http://www.w3.org/2000/svg" xmlns:xlink="http://www.w3.org/1999/xlink" version="1.1"><rect x="0" y="0" width="900" height="450" fill="#ffffff"></rect><path d="M0 431L30 432.3C60 433.7 120 436.3 180 428.2C240 420 300 401 360 388.8C420 376.7 480 371.3 540 381.2C600 391 660 416 720 424.3C780 432.7 840 424.3 870 420.2L900 416L900 451L870 451C840 451 780 451 720 451C660 451 600 451 540 451C480 451 420 451 360 451C300 451 240 451 180 451C120 451 60 451 30 451L0 451Z" fill="#F7F8FA" stroke-linecap="round" stroke-linejoin="miter"></path></svg>